M48
METRIC,TZ
T1C0.400
T2C1.200
%
G90
G05
T1
X74.Y-49.781
X74.Y-68.831
X74.Y-87.881
X74.Y-106.931
X80.223Y-70.355
X80.763Y-90.345
T2
X75.016Y-53.083
X68.41Y-109.852
X75.524Y-33.398
X76.538Y-109.852
X80.602Y-109.852
X71.46Y-33.398
X70.952Y-91.183
X79.334Y-29.588
X68.664Y-113.662
X75.016Y-91.183
X75.016Y-72.133
X67.396Y-33.398
X79.588Y-33.398
X70.952Y-53.083
X72.476Y-109.852
T0
M30
