M48
METRIC,TZ
T1C1.200
T2C1.700
T3C3.000
T4C3.200
T5C4.000
%
G90
G05
T1
X77.048Y-52.067
X77.556Y-32.382
X73.492Y-32.382
X78.318Y-27.556
X81.62Y-32.382
X69.682Y-96.644
X74.508Y-91.818
X77.048Y-71.117
X72.984Y-52.067
X66.38Y-91.818
X70.444Y-91.818
X72.984Y-71.117
T2
X79.08Y-43.05
X68.92Y-81.15
X79.08Y-81.15
X68.92Y-62.1
X79.08Y-62.1
X68.92Y-43.05
T3
X71.46Y-76.07
X77.81Y-78.61
X71.46Y-57.02
X77.81Y-59.56
X71.46Y-37.97
X77.81Y-40.51
T4
X74.Y-28.762
X74.Y-95.438
T5
X74.Y-81.15
X74.Y-62.1
X74.Y-43.05
T0
M30
