%TF.GenerationSoftware,KiCad,Pcbnew,5.0.0+dfsg1-2*%
%TF.CreationDate,2019-02-10T19:22:37+01:00*%
%TF.ProjectId,yatara-puno-mx-5,7961746172612D70756E6F2D6D782D35,0.2*%
%TF.SameCoordinates,Original*%
%TF.FileFunction,Soldermask,Top*%
%TF.FilePolarity,Negative*%
%FSLAX46Y46*%
G04 Gerber Fmt 4.6, Leading zero omitted, Abs format (unit mm)*
G04 Created by KiCad (PCBNEW 5.0.0+dfsg1-2) date Sun Feb 10 19:22:37 2019*
%MOMM*%
%LPD*%
G01*
G04 APERTURE LIST*
%ADD10R,1.300000X1.600000*%
%ADD11C,1.600000*%
%ADD12C,3.600000*%
%ADD13C,2.900000*%
%ADD14C,4.400000*%
%ADD15C,2.100000*%
%ADD16C,3.400000*%
%ADD17R,2.950000X2.900000*%
G04 APERTURE END LIST*
D10*
X67270000Y-46098000D03*
X70570000Y-46098000D03*
X67270000Y-65148000D03*
X70570000Y-65148000D03*
X67270000Y-84198000D03*
X70570000Y-84198000D03*
X67270000Y-103248000D03*
X70570000Y-103248000D03*
X67270000Y-122298000D03*
X70570000Y-122298000D03*
D11*
X77048000Y-52067000D03*
X72984000Y-52067000D03*
X77048000Y-71117000D03*
X72984000Y-90167000D03*
X69682000Y-134744000D03*
X78318000Y-134744000D03*
X66380000Y-129918000D03*
X78572000Y-129918000D03*
X69682000Y-27556000D03*
X74508000Y-129918000D03*
X70444000Y-129918000D03*
X77048000Y-109217000D03*
X72984000Y-109217000D03*
X81620000Y-32382000D03*
X77556000Y-32382000D03*
X73492000Y-32382000D03*
X69428000Y-32382000D03*
D12*
X74000000Y-133537500D03*
X74000000Y-28762500D03*
D11*
X78318000Y-27556000D03*
D13*
X71460000Y-33398000D03*
X67396000Y-33398000D03*
X79588000Y-33398000D03*
X75524000Y-33398000D03*
X70952000Y-110233000D03*
X79334000Y-132712000D03*
X75016000Y-110233000D03*
X68666000Y-29588000D03*
D14*
X74000000Y-119250000D03*
D15*
X79080000Y-119250000D03*
X68920000Y-119250000D03*
D16*
X71460000Y-114170000D03*
X77810000Y-116710000D03*
D17*
X67910000Y-114170000D03*
X81360000Y-116710000D03*
X81360000Y-40510000D03*
X67910000Y-37970000D03*
D16*
X77810000Y-40510000D03*
X71460000Y-37970000D03*
D15*
X68920000Y-43050000D03*
X79080000Y-43050000D03*
D14*
X74000000Y-43050000D03*
X74000000Y-100200000D03*
D15*
X79080000Y-100200000D03*
X68920000Y-100200000D03*
D16*
X71460000Y-95120000D03*
X77810000Y-97660000D03*
D17*
X67910000Y-95120000D03*
X81360000Y-97660000D03*
X81360000Y-78610000D03*
X67910000Y-76070000D03*
D16*
X77810000Y-78610000D03*
X71460000Y-76070000D03*
D15*
X68920000Y-81150000D03*
X79080000Y-81150000D03*
D14*
X74000000Y-81150000D03*
X74000000Y-62100000D03*
D15*
X79080000Y-62100000D03*
X68920000Y-62100000D03*
D16*
X71460000Y-57020000D03*
X77810000Y-59560000D03*
D17*
X67910000Y-57020000D03*
X81360000Y-59560000D03*
D13*
X80602000Y-128902000D03*
X76538000Y-128902000D03*
X72476000Y-128902000D03*
X68410000Y-128902000D03*
X79334000Y-29588000D03*
X68664000Y-132712000D03*
X75016000Y-72133000D03*
X70952000Y-53083000D03*
X75016000Y-53083000D03*
X70952000Y-91183000D03*
M02*
