%TF.GenerationSoftware,KiCad,Pcbnew,5.0.0+dfsg1-2*%
%TF.CreationDate,2019-02-10T19:22:37+01:00*%
%TF.ProjectId,yatara-puno-mx-5,7961746172612D70756E6F2D6D782D35,0.2*%
%TF.SameCoordinates,Original*%
%TF.FileFunction,Copper,L2,Bot,Signal*%
%TF.FilePolarity,Positive*%
%FSLAX46Y46*%
G04 Gerber Fmt 4.6, Leading zero omitted, Abs format (unit mm)*
G04 Created by KiCad (PCBNEW 5.0.0+dfsg1-2) date Sun Feb 10 19:22:37 2019*
%MOMM*%
%LPD*%
G01*
G04 APERTURE LIST*
%ADD10C,2.500000*%
%ADD11C,0.800000*%
%ADD12C,0.250000*%
%ADD13C,0.350000*%
G04 APERTURE END LIST*
D10*
X71460000Y-33398000D03*
X67396000Y-33398000D03*
X79588000Y-33398000D03*
X75524000Y-33398000D03*
X70952000Y-110233000D03*
X79334000Y-132712000D03*
X75016000Y-110233000D03*
X68666000Y-29588000D03*
X80602000Y-128902000D03*
X76538000Y-128902000D03*
X72476000Y-128902000D03*
X68410000Y-128902000D03*
X79334000Y-29588000D03*
X68664000Y-132712000D03*
X75016000Y-72133000D03*
X70952000Y-53083000D03*
X75016000Y-53083000D03*
X70952000Y-91183000D03*
D11*
X82001000Y-127251000D03*
X74000000Y-125981000D03*
X74000000Y-49781000D03*
X74000000Y-68831000D03*
X80223000Y-70355000D03*
X74000000Y-106931000D03*
X80350000Y-109725000D03*
X80763000Y-90345000D03*
X74000000Y-87881000D03*
D12*
X65237000Y-43050000D02*
X65237000Y-33398000D01*
X65264000Y-43745000D02*
X65237000Y-43050000D01*
X65340000Y-44405000D02*
X65264000Y-43745000D01*
X65458000Y-45035000D02*
X65340000Y-44405000D01*
X65611000Y-45639000D02*
X65458000Y-45035000D01*
X66436000Y-47891000D02*
X65611000Y-45639000D01*
X67264000Y-50103000D02*
X66436000Y-47891000D01*
X67420000Y-50685000D02*
X67264000Y-50103000D01*
X67540000Y-51288000D02*
X67420000Y-50685000D01*
X67620000Y-51916000D02*
X67540000Y-51288000D01*
X67650000Y-52575000D02*
X67620000Y-51916000D01*
X67626000Y-53234000D02*
X67650000Y-52575000D01*
X67552000Y-53862000D02*
X67626000Y-53234000D01*
X67435000Y-54465000D02*
X67552000Y-53862000D01*
X67282000Y-55047000D02*
X67435000Y-54465000D01*
X66451000Y-57259000D02*
X67282000Y-55047000D01*
X65617000Y-59511000D02*
X66451000Y-57259000D01*
X65461000Y-60115000D02*
X65617000Y-59511000D01*
X65342000Y-60745000D02*
X65461000Y-60115000D01*
X65264000Y-61405000D02*
X65342000Y-60745000D01*
X65237000Y-62100000D02*
X65264000Y-61405000D01*
X65264000Y-62795000D02*
X65237000Y-62100000D01*
X65340000Y-63455000D02*
X65264000Y-62795000D01*
X65458000Y-64085000D02*
X65340000Y-63455000D01*
X65611000Y-64689000D02*
X65458000Y-64085000D01*
X66436000Y-66941000D02*
X65611000Y-64689000D01*
X67264000Y-69153000D02*
X66436000Y-66941000D01*
X67420000Y-69735000D02*
X67264000Y-69153000D01*
X67540000Y-70338000D02*
X67420000Y-69735000D01*
X67620000Y-70966000D02*
X67540000Y-70338000D01*
X67650000Y-71625000D02*
X67620000Y-70966000D01*
X67626000Y-72284000D02*
X67650000Y-71625000D01*
X67552000Y-72912000D02*
X67626000Y-72284000D01*
X67435000Y-73515000D02*
X67552000Y-72912000D01*
X67282000Y-74097000D02*
X67435000Y-73515000D01*
X66451000Y-76309000D02*
X67282000Y-74097000D01*
X65617000Y-78561000D02*
X66451000Y-76309000D01*
X65461000Y-79165000D02*
X65617000Y-78561000D01*
X65342000Y-79795000D02*
X65461000Y-79165000D01*
X65264000Y-80455000D02*
X65342000Y-79795000D01*
X65237000Y-81150000D02*
X65264000Y-80455000D01*
X65264000Y-81845000D02*
X65237000Y-81150000D01*
X65340000Y-82505000D02*
X65264000Y-81845000D01*
X65458000Y-83135000D02*
X65340000Y-82505000D01*
X65611000Y-83739000D02*
X65458000Y-83135000D01*
X66436000Y-85991000D02*
X65611000Y-83739000D01*
X67264000Y-88203000D02*
X66436000Y-85991000D01*
X67420000Y-88785000D02*
X67264000Y-88203000D01*
X67540000Y-89388000D02*
X67420000Y-88785000D01*
X67620000Y-90016000D02*
X67540000Y-89388000D01*
X67650000Y-90675000D02*
X67620000Y-90016000D01*
X67626000Y-91334000D02*
X67650000Y-90675000D01*
X67552000Y-91962000D02*
X67626000Y-91334000D01*
X67435000Y-92565000D02*
X67552000Y-91962000D01*
X67282000Y-93147000D02*
X67435000Y-92565000D01*
X66451000Y-95359000D02*
X67282000Y-93147000D01*
X65617000Y-97611000D02*
X66451000Y-95359000D01*
X65461000Y-98215000D02*
X65617000Y-97611000D01*
X65342000Y-98845000D02*
X65461000Y-98215000D01*
X65264000Y-99505000D02*
X65342000Y-98845000D01*
X65237000Y-100200000D02*
X65264000Y-99505000D01*
X65264000Y-100895000D02*
X65237000Y-100200000D01*
X65340000Y-101555000D02*
X65264000Y-100895000D01*
X65458000Y-102185000D02*
X65340000Y-101555000D01*
X65611000Y-102789000D02*
X65458000Y-102185000D01*
X66436000Y-105041000D02*
X65611000Y-102789000D01*
X67264000Y-107253000D02*
X66436000Y-105041000D01*
X67420000Y-107835000D02*
X67264000Y-107253000D01*
X67540000Y-108438000D02*
X67420000Y-107835000D01*
X67620000Y-109066000D02*
X67540000Y-108438000D01*
X67650000Y-109725000D02*
X67620000Y-109066000D01*
X67626000Y-110384000D02*
X67650000Y-109725000D01*
X67552000Y-111012000D02*
X67626000Y-110384000D01*
X67435000Y-111615000D02*
X67552000Y-111012000D01*
X67282000Y-112197000D02*
X67435000Y-111615000D01*
X66451000Y-114409000D02*
X67282000Y-112197000D01*
X65617000Y-116661000D02*
X66451000Y-114409000D01*
X65461000Y-117265000D02*
X65617000Y-116661000D01*
X65342000Y-117895000D02*
X65461000Y-117265000D01*
X65264000Y-118555000D02*
X65342000Y-117895000D01*
X65237000Y-119250000D02*
X65264000Y-118555000D01*
X65270000Y-119810000D02*
X65237000Y-119250000D01*
X65368000Y-120399000D02*
X65270000Y-119810000D01*
X65527000Y-121002000D02*
X65368000Y-120399000D01*
X65745000Y-121603000D02*
X65527000Y-121002000D01*
X66018000Y-122189000D02*
X65745000Y-121603000D01*
X66344000Y-122743000D02*
X66018000Y-122189000D01*
X66720000Y-123250000D02*
X66344000Y-122743000D01*
X66925000Y-123481000D02*
X66720000Y-123250000D01*
X67142000Y-123695000D02*
X66925000Y-123481000D01*
X67483000Y-123990000D02*
X67142000Y-123695000D01*
X67842000Y-124262000D02*
X67483000Y-123990000D01*
X68604000Y-124741000D02*
X67842000Y-124262000D01*
X69421000Y-125135000D02*
X68604000Y-124741000D01*
X70283000Y-125450000D02*
X69421000Y-125135000D01*
X71181000Y-125688000D02*
X70283000Y-125450000D01*
X72106000Y-125853000D02*
X71181000Y-125688000D01*
X73049000Y-125950000D02*
X72106000Y-125853000D01*
X74000000Y-125981000D02*
X73049000Y-125950000D01*
X79624000Y-132699000D02*
X79334000Y-132712000D01*
X79919000Y-132658000D02*
X79624000Y-132699000D01*
X80216000Y-132589000D02*
X79919000Y-132658000D01*
X80513000Y-132492000D02*
X80216000Y-132589000D01*
X80805000Y-132366000D02*
X80513000Y-132492000D01*
X81089000Y-132210000D02*
X80805000Y-132366000D01*
X81362000Y-132024000D02*
X81089000Y-132210000D01*
X81620000Y-131807000D02*
X81362000Y-132024000D01*
X81861000Y-131559000D02*
X81620000Y-131807000D01*
X82080000Y-131280000D02*
X81861000Y-131559000D01*
X82275000Y-130967000D02*
X82080000Y-131280000D01*
X82442000Y-130622000D02*
X82275000Y-130967000D01*
X82577000Y-130244000D02*
X82442000Y-130622000D01*
X82678000Y-129831000D02*
X82577000Y-130244000D01*
X82741000Y-129384000D02*
X82678000Y-129831000D01*
X82763000Y-128902000D02*
X82741000Y-129384000D01*
X82759000Y-128791000D02*
X82763000Y-128902000D01*
X82747000Y-128678000D02*
X82759000Y-128791000D01*
X82702000Y-128448000D02*
X82747000Y-128678000D01*
X82631000Y-128218000D02*
X82702000Y-128448000D01*
X82538000Y-127993000D02*
X82631000Y-128218000D01*
X82424000Y-127778000D02*
X82538000Y-127993000D01*
X82295000Y-127579000D02*
X82424000Y-127778000D01*
X82153000Y-127402000D02*
X82295000Y-127579000D01*
X82078000Y-127323000D02*
X82153000Y-127402000D01*
X82001000Y-127251000D02*
X82078000Y-127323000D01*
X68376000Y-29601000D02*
X68666000Y-29588000D01*
X68081000Y-29642000D02*
X68376000Y-29601000D01*
X67784000Y-29711000D02*
X68081000Y-29642000D01*
X67487000Y-29808000D02*
X67784000Y-29711000D01*
X67195000Y-29934000D02*
X67487000Y-29808000D01*
X66911000Y-30090000D02*
X67195000Y-29934000D01*
X66638000Y-30276000D02*
X66911000Y-30090000D01*
X66380000Y-30493000D02*
X66638000Y-30276000D01*
X66139000Y-30741000D02*
X66380000Y-30493000D01*
X65920000Y-31020000D02*
X66139000Y-30741000D01*
X65725000Y-31333000D02*
X65920000Y-31020000D01*
X65558000Y-31678000D02*
X65725000Y-31333000D01*
X65423000Y-32056000D02*
X65558000Y-31678000D01*
X65322000Y-32469000D02*
X65423000Y-32056000D01*
X65259000Y-32916000D02*
X65322000Y-32469000D01*
X65237000Y-33398000D02*
X65259000Y-32916000D01*
X80704000Y-118555000D02*
X80731000Y-119250000D01*
X80628000Y-117895000D02*
X80704000Y-118555000D01*
X80510000Y-117265000D02*
X80628000Y-117895000D01*
X80357000Y-116661000D02*
X80510000Y-117265000D01*
X79532000Y-114409000D02*
X80357000Y-116661000D01*
X78704000Y-112197000D02*
X79532000Y-114409000D01*
X78548000Y-111615000D02*
X78704000Y-112197000D01*
X78428000Y-111012000D02*
X78548000Y-111615000D01*
X78348000Y-110384000D02*
X78428000Y-111012000D01*
X78318000Y-109725000D02*
X78348000Y-110384000D01*
X78342000Y-109066000D02*
X78318000Y-109725000D01*
X78416000Y-108438000D02*
X78342000Y-109066000D01*
X78533000Y-107835000D02*
X78416000Y-108438000D01*
X78686000Y-107253000D02*
X78533000Y-107835000D01*
X79517000Y-105041000D02*
X78686000Y-107253000D01*
X80351000Y-102789000D02*
X79517000Y-105041000D01*
X80507000Y-102185000D02*
X80351000Y-102789000D01*
X80626000Y-101555000D02*
X80507000Y-102185000D01*
X80704000Y-100895000D02*
X80626000Y-101555000D01*
X80731000Y-100200000D02*
X80704000Y-100895000D01*
X80704000Y-99505000D02*
X80731000Y-100200000D01*
X80628000Y-98845000D02*
X80704000Y-99505000D01*
X80510000Y-98215000D02*
X80628000Y-98845000D01*
X80357000Y-97611000D02*
X80510000Y-98215000D01*
X79532000Y-95359000D02*
X80357000Y-97611000D01*
X78704000Y-93147000D02*
X79532000Y-95359000D01*
X78548000Y-92565000D02*
X78704000Y-93147000D01*
X78428000Y-91962000D02*
X78548000Y-92565000D01*
X78348000Y-91334000D02*
X78428000Y-91962000D01*
X78318000Y-90675000D02*
X78348000Y-91334000D01*
X78342000Y-90016000D02*
X78318000Y-90675000D01*
X78416000Y-89388000D02*
X78342000Y-90016000D01*
X78533000Y-88785000D02*
X78416000Y-89388000D01*
X78686000Y-88203000D02*
X78533000Y-88785000D01*
X79517000Y-85991000D02*
X78686000Y-88203000D01*
X80351000Y-83739000D02*
X79517000Y-85991000D01*
X80507000Y-83135000D02*
X80351000Y-83739000D01*
X80626000Y-82505000D02*
X80507000Y-83135000D01*
X80704000Y-81845000D02*
X80626000Y-82505000D01*
X80731000Y-81150000D02*
X80704000Y-81845000D01*
X73401000Y-49747000D02*
X74000000Y-49781000D01*
X72799000Y-49648000D02*
X73401000Y-49747000D01*
X72200000Y-49486000D02*
X72799000Y-49648000D01*
X71609000Y-49265000D02*
X72200000Y-49486000D01*
X71032000Y-48987000D02*
X71609000Y-49265000D01*
X70475000Y-48656000D02*
X71032000Y-48987000D01*
X69944000Y-48274000D02*
X70475000Y-48656000D01*
X69444000Y-47844000D02*
X69944000Y-48274000D01*
X68981000Y-47370000D02*
X69444000Y-47844000D01*
X68562000Y-46854000D02*
X68981000Y-47370000D01*
X68191000Y-46299000D02*
X68562000Y-46854000D01*
X67874000Y-45709000D02*
X68191000Y-46299000D01*
X67618000Y-45086000D02*
X67874000Y-45709000D01*
X67428000Y-44433000D02*
X67618000Y-45086000D01*
X67310000Y-43753000D02*
X67428000Y-44433000D01*
X67269000Y-43050000D02*
X67310000Y-43753000D01*
X79335000Y-33672000D02*
X79588000Y-33398000D01*
X79070000Y-33920000D02*
X79335000Y-33672000D01*
X78794000Y-34144000D02*
X79070000Y-33920000D01*
X78508000Y-34345000D02*
X78794000Y-34144000D01*
X78212000Y-34525000D02*
X78508000Y-34345000D01*
X77908000Y-34684000D02*
X78212000Y-34525000D01*
X77279000Y-34949000D02*
X77908000Y-34684000D01*
X76627000Y-35150000D02*
X77279000Y-34949000D01*
X75962000Y-35299000D02*
X76627000Y-35150000D01*
X74618000Y-35482000D02*
X75962000Y-35299000D01*
X72092000Y-35704000D02*
X74618000Y-35482000D01*
X71539000Y-35793000D02*
X72092000Y-35704000D01*
X71033000Y-35918000D02*
X71539000Y-35793000D01*
X70800000Y-35997000D02*
X71033000Y-35918000D01*
X70581000Y-36090000D02*
X70800000Y-35997000D01*
X70377000Y-36196000D02*
X70581000Y-36090000D01*
X70190000Y-36319000D02*
X70377000Y-36196000D01*
X69843000Y-36598000D02*
X70190000Y-36319000D01*
X69518000Y-36910000D02*
X69843000Y-36598000D01*
X69213000Y-37252000D02*
X69518000Y-36910000D01*
X68930000Y-37621000D02*
X69213000Y-37252000D01*
X68668000Y-38013000D02*
X68930000Y-37621000D01*
X68429000Y-38426000D02*
X68668000Y-38013000D01*
X68015000Y-39304000D02*
X68429000Y-38426000D01*
X67691000Y-40228000D02*
X68015000Y-39304000D01*
X67458000Y-41177000D02*
X67691000Y-40228000D01*
X67316000Y-42125000D02*
X67458000Y-41177000D01*
X67269000Y-43050000D02*
X67316000Y-42125000D01*
X68665000Y-128628000D02*
X68412000Y-128902000D01*
X68930000Y-128380000D02*
X68665000Y-128628000D01*
X69206000Y-128156000D02*
X68930000Y-128380000D01*
X69492000Y-127955000D02*
X69206000Y-128156000D01*
X69788000Y-127775000D02*
X69492000Y-127955000D01*
X70092000Y-127616000D02*
X69788000Y-127775000D01*
X70721000Y-127351000D02*
X70092000Y-127616000D01*
X71373000Y-127150000D02*
X70721000Y-127351000D01*
X72038000Y-127001000D02*
X71373000Y-127150000D01*
X73382000Y-126818000D02*
X72038000Y-127001000D01*
X75908000Y-126596000D02*
X73382000Y-126818000D01*
X76461000Y-126507000D02*
X75908000Y-126596000D01*
X76967000Y-126382000D02*
X76461000Y-126507000D01*
X77200000Y-126303000D02*
X76967000Y-126382000D01*
X77419000Y-126210000D02*
X77200000Y-126303000D01*
X77623000Y-126104000D02*
X77419000Y-126210000D01*
X77810000Y-125981000D02*
X77623000Y-126104000D01*
X78157000Y-125702000D02*
X77810000Y-125981000D01*
X78482000Y-125390000D02*
X78157000Y-125702000D01*
X78787000Y-125048000D02*
X78482000Y-125390000D01*
X79070000Y-124679000D02*
X78787000Y-125048000D01*
X79332000Y-124287000D02*
X79070000Y-124679000D01*
X79571000Y-123874000D02*
X79332000Y-124287000D01*
X79985000Y-122996000D02*
X79571000Y-123874000D01*
X80309000Y-122072000D02*
X79985000Y-122996000D01*
X80542000Y-121123000D02*
X80309000Y-122072000D01*
X80684000Y-120175000D02*
X80542000Y-121123000D01*
X80731000Y-119250000D02*
X80684000Y-120175000D01*
X80701000Y-80448000D02*
X80728000Y-81143000D01*
X80625000Y-79788000D02*
X80701000Y-80448000D01*
X80507000Y-79158000D02*
X80625000Y-79788000D01*
X80354000Y-78554000D02*
X80507000Y-79158000D01*
X79529000Y-76303000D02*
X80354000Y-78554000D01*
X78701000Y-74090000D02*
X79529000Y-76303000D01*
X78545000Y-73508000D02*
X78701000Y-74090000D01*
X78425000Y-72905000D02*
X78545000Y-73508000D01*
X78346000Y-72277000D02*
X78425000Y-72905000D01*
X78315000Y-71618000D02*
X78346000Y-72277000D01*
X78339000Y-70960000D02*
X78315000Y-71618000D01*
X78413000Y-70331000D02*
X78339000Y-70960000D01*
X78530000Y-69729000D02*
X78413000Y-70331000D01*
X78684000Y-69147000D02*
X78530000Y-69729000D01*
X79514000Y-66934000D02*
X78684000Y-69147000D01*
X80536000Y-64474000D02*
X79514000Y-66934000D01*
X81280000Y-62204000D02*
X80536000Y-64474000D01*
X81758000Y-60124000D02*
X81280000Y-62204000D01*
X81984000Y-58233000D02*
X81758000Y-60124000D01*
X82006000Y-57359000D02*
X81984000Y-58233000D01*
X81970000Y-56533000D02*
X82006000Y-57359000D01*
X81876000Y-55755000D02*
X81970000Y-56533000D01*
X81726000Y-55023000D02*
X81876000Y-55755000D01*
X81523000Y-54340000D02*
X81726000Y-55023000D01*
X81267000Y-53704000D02*
X81523000Y-54340000D01*
X80960000Y-53116000D02*
X81267000Y-53704000D01*
X80604000Y-52575000D02*
X80960000Y-53116000D01*
X80335000Y-52236000D02*
X80604000Y-52575000D01*
X80046000Y-51919000D02*
X80335000Y-52236000D01*
X79735000Y-51624000D02*
X80046000Y-51919000D01*
X79403000Y-51350000D02*
X79735000Y-51624000D01*
X79051000Y-51099000D02*
X79403000Y-51350000D01*
X78680000Y-50869000D02*
X79051000Y-51099000D01*
X78290000Y-50661000D02*
X78680000Y-50869000D01*
X77881000Y-50475000D02*
X78290000Y-50661000D01*
X77010000Y-50168000D02*
X77881000Y-50475000D01*
X76069000Y-49950000D02*
X77010000Y-50168000D01*
X75064000Y-49818000D02*
X76069000Y-49950000D01*
X73997000Y-49774000D02*
X75064000Y-49818000D01*
X66788000Y-43745000D02*
X66761000Y-43050000D01*
X66864000Y-44405000D02*
X66788000Y-43745000D01*
X66982000Y-45035000D02*
X66864000Y-44405000D01*
X67135000Y-45639000D02*
X66982000Y-45035000D01*
X67960000Y-47891000D02*
X67135000Y-45639000D01*
X68788000Y-50103000D02*
X67960000Y-47891000D01*
X68944000Y-50685000D02*
X68788000Y-50103000D01*
X69064000Y-51288000D02*
X68944000Y-50685000D01*
X69144000Y-51916000D02*
X69064000Y-51288000D01*
X69174000Y-52575000D02*
X69144000Y-51916000D01*
X69150000Y-53234000D02*
X69174000Y-52575000D01*
X69076000Y-53862000D02*
X69150000Y-53234000D01*
X68959000Y-54465000D02*
X69076000Y-53862000D01*
X68806000Y-55047000D02*
X68959000Y-54465000D01*
X67975000Y-57259000D02*
X68806000Y-55047000D01*
X67141000Y-59511000D02*
X67975000Y-57259000D01*
X66985000Y-60115000D02*
X67141000Y-59511000D01*
X66866000Y-60745000D02*
X66985000Y-60115000D01*
X66788000Y-61405000D02*
X66866000Y-60745000D01*
X66761000Y-62100000D02*
X66788000Y-61405000D01*
X75056000Y-33836000D02*
X75524000Y-33398000D01*
X74616000Y-34191000D02*
X75056000Y-33836000D01*
X74202000Y-34471000D02*
X74616000Y-34191000D01*
X73810000Y-34687000D02*
X74202000Y-34471000D01*
X73439000Y-34849000D02*
X73810000Y-34687000D01*
X73084000Y-34967000D02*
X73439000Y-34849000D01*
X72413000Y-35112000D02*
X73084000Y-34967000D01*
X71143000Y-35315000D02*
X72413000Y-35112000D01*
X70823000Y-35406000D02*
X71143000Y-35315000D01*
X70496000Y-35534000D02*
X70823000Y-35406000D01*
X70159000Y-35708000D02*
X70496000Y-35534000D01*
X69809000Y-35938000D02*
X70159000Y-35708000D01*
X69461000Y-36216000D02*
X69809000Y-35938000D01*
X69131000Y-36525000D02*
X69461000Y-36216000D01*
X68820000Y-36863000D02*
X69131000Y-36525000D01*
X68529000Y-37228000D02*
X68820000Y-36863000D01*
X68258000Y-37618000D02*
X68529000Y-37228000D01*
X68007000Y-38032000D02*
X68258000Y-37618000D01*
X67571000Y-38923000D02*
X68007000Y-38032000D01*
X67223000Y-39884000D02*
X67571000Y-38923000D01*
X66969000Y-40903000D02*
X67223000Y-39884000D01*
X66814000Y-41963000D02*
X66969000Y-40903000D01*
X66761000Y-43050000D02*
X66814000Y-41963000D01*
X81212000Y-118555000D02*
X81239000Y-119250000D01*
X81136000Y-117895000D02*
X81212000Y-118555000D01*
X81018000Y-117265000D02*
X81136000Y-117895000D01*
X80865000Y-116661000D02*
X81018000Y-117265000D01*
X80040000Y-114409000D02*
X80865000Y-116661000D01*
X79212000Y-112197000D02*
X80040000Y-114409000D01*
X79056000Y-111615000D02*
X79212000Y-112197000D01*
X78936000Y-111012000D02*
X79056000Y-111615000D01*
X78856000Y-110384000D02*
X78936000Y-111012000D01*
X78826000Y-109725000D02*
X78856000Y-110384000D01*
X78850000Y-109066000D02*
X78826000Y-109725000D01*
X78924000Y-108438000D02*
X78850000Y-109066000D01*
X79041000Y-107835000D02*
X78924000Y-108438000D01*
X79194000Y-107253000D02*
X79041000Y-107835000D01*
X80025000Y-105041000D02*
X79194000Y-107253000D01*
X80859000Y-102789000D02*
X80025000Y-105041000D01*
X81015000Y-102185000D02*
X80859000Y-102789000D01*
X81134000Y-101555000D02*
X81015000Y-102185000D01*
X81212000Y-100895000D02*
X81134000Y-101555000D01*
X81239000Y-100200000D02*
X81212000Y-100895000D01*
X73291000Y-68797000D02*
X74000000Y-68831000D01*
X72595000Y-68698000D02*
X73291000Y-68797000D01*
X71917000Y-68536000D02*
X72595000Y-68698000D01*
X71262000Y-68315000D02*
X71917000Y-68536000D01*
X70633000Y-68037000D02*
X71262000Y-68315000D01*
X70035000Y-67706000D02*
X70633000Y-68037000D01*
X69473000Y-67324000D02*
X70035000Y-67706000D01*
X68952000Y-66894000D02*
X69473000Y-67324000D01*
X68475000Y-66420000D02*
X68952000Y-66894000D01*
X68047000Y-65904000D02*
X68475000Y-66420000D01*
X67673000Y-65349000D02*
X68047000Y-65904000D01*
X67356000Y-64759000D02*
X67673000Y-65349000D01*
X67103000Y-64136000D02*
X67356000Y-64759000D01*
X66916000Y-63483000D02*
X67103000Y-64136000D01*
X66800000Y-62803000D02*
X66916000Y-63483000D01*
X66761000Y-62100000D02*
X66800000Y-62803000D01*
X72944000Y-128464000D02*
X72476000Y-128902000D01*
X73384000Y-128109000D02*
X72944000Y-128464000D01*
X73798000Y-127829000D02*
X73384000Y-128109000D01*
X74190000Y-127613000D02*
X73798000Y-127829000D01*
X74561000Y-127451000D02*
X74190000Y-127613000D01*
X74916000Y-127333000D02*
X74561000Y-127451000D01*
X75587000Y-127188000D02*
X74916000Y-127333000D01*
X76857000Y-126985000D02*
X75587000Y-127188000D01*
X77177000Y-126894000D02*
X76857000Y-126985000D01*
X77504000Y-126766000D02*
X77177000Y-126894000D01*
X77841000Y-126592000D02*
X77504000Y-126766000D01*
X78191000Y-126362000D02*
X77841000Y-126592000D01*
X78539000Y-126084000D02*
X78191000Y-126362000D01*
X78869000Y-125775000D02*
X78539000Y-126084000D01*
X79180000Y-125437000D02*
X78869000Y-125775000D01*
X79471000Y-125072000D02*
X79180000Y-125437000D01*
X79742000Y-124682000D02*
X79471000Y-125072000D01*
X79993000Y-124268000D02*
X79742000Y-124682000D01*
X80429000Y-123377000D02*
X79993000Y-124268000D01*
X80777000Y-122416000D02*
X80429000Y-123377000D01*
X81031000Y-121397000D02*
X80777000Y-122416000D01*
X81186000Y-120337000D02*
X81031000Y-121397000D01*
X81239000Y-119250000D02*
X81186000Y-120337000D01*
X81212000Y-99505000D02*
X81239000Y-100200000D01*
X81136000Y-98845000D02*
X81212000Y-99505000D01*
X81018000Y-98215000D02*
X81136000Y-98845000D01*
X80865000Y-97611000D02*
X81018000Y-98215000D01*
X80040000Y-95359000D02*
X80865000Y-97611000D01*
X79212000Y-93147000D02*
X80040000Y-95359000D01*
X79056000Y-92565000D02*
X79212000Y-93147000D01*
X78936000Y-91962000D02*
X79056000Y-92565000D01*
X78856000Y-91334000D02*
X78936000Y-91962000D01*
X78826000Y-90675000D02*
X78856000Y-91334000D01*
X78850000Y-90016000D02*
X78826000Y-90675000D01*
X78924000Y-89388000D02*
X78850000Y-90016000D01*
X79041000Y-88785000D02*
X78924000Y-89388000D01*
X79194000Y-88203000D02*
X79041000Y-88785000D01*
X80025000Y-85991000D02*
X79194000Y-88203000D01*
X81291000Y-82704000D02*
X80025000Y-85991000D01*
X82116000Y-79861000D02*
X81291000Y-82704000D01*
X82545000Y-77431000D02*
X82116000Y-79861000D01*
X82623000Y-76360000D02*
X82545000Y-77431000D01*
X82619000Y-75381000D02*
X82623000Y-76360000D01*
X82536000Y-74489000D02*
X82619000Y-75381000D01*
X82381000Y-73680000D02*
X82536000Y-74489000D01*
X82158000Y-72951000D02*
X82381000Y-73680000D01*
X81873000Y-72297000D02*
X82158000Y-72951000D01*
X81532000Y-71714000D02*
X81873000Y-72297000D01*
X81140000Y-71199000D02*
X81532000Y-71714000D01*
X80702000Y-70747000D02*
X81140000Y-71199000D01*
X80223000Y-70355000D02*
X80702000Y-70747000D01*
X65772000Y-43745000D02*
X65745000Y-43050000D01*
X65848000Y-44405000D02*
X65772000Y-43745000D01*
X65966000Y-45035000D02*
X65848000Y-44405000D01*
X66119000Y-45639000D02*
X65966000Y-45035000D01*
X66944000Y-47891000D02*
X66119000Y-45639000D01*
X67772000Y-50103000D02*
X66944000Y-47891000D01*
X67928000Y-50685000D02*
X67772000Y-50103000D01*
X68048000Y-51288000D02*
X67928000Y-50685000D01*
X68128000Y-51916000D02*
X68048000Y-51288000D01*
X68158000Y-52575000D02*
X68128000Y-51916000D01*
X68134000Y-53234000D02*
X68158000Y-52575000D01*
X68060000Y-53862000D02*
X68134000Y-53234000D01*
X67943000Y-54465000D02*
X68060000Y-53862000D01*
X67790000Y-55047000D02*
X67943000Y-54465000D01*
X66959000Y-57259000D02*
X67790000Y-55047000D01*
X66125000Y-59511000D02*
X66959000Y-57259000D01*
X65969000Y-60115000D02*
X66125000Y-59511000D01*
X65850000Y-60745000D02*
X65969000Y-60115000D01*
X65772000Y-61405000D02*
X65850000Y-60745000D01*
X65745000Y-62100000D02*
X65772000Y-61405000D01*
X65772000Y-62795000D02*
X65745000Y-62100000D01*
X65848000Y-63455000D02*
X65772000Y-62795000D01*
X65966000Y-64085000D02*
X65848000Y-63455000D01*
X66119000Y-64689000D02*
X65966000Y-64085000D01*
X66944000Y-66941000D02*
X66119000Y-64689000D01*
X67772000Y-69153000D02*
X66944000Y-66941000D01*
X67928000Y-69735000D02*
X67772000Y-69153000D01*
X68048000Y-70338000D02*
X67928000Y-69735000D01*
X68128000Y-70966000D02*
X68048000Y-70338000D01*
X68158000Y-71625000D02*
X68128000Y-70966000D01*
X68134000Y-72284000D02*
X68158000Y-71625000D01*
X68060000Y-72912000D02*
X68134000Y-72284000D01*
X67943000Y-73515000D02*
X68060000Y-72912000D01*
X67790000Y-74097000D02*
X67943000Y-73515000D01*
X66959000Y-76309000D02*
X67790000Y-74097000D01*
X66125000Y-78561000D02*
X66959000Y-76309000D01*
X65969000Y-79165000D02*
X66125000Y-78561000D01*
X65850000Y-79795000D02*
X65969000Y-79165000D01*
X65772000Y-80455000D02*
X65850000Y-79795000D01*
X65745000Y-81150000D02*
X65772000Y-80455000D01*
X65772000Y-81845000D02*
X65745000Y-81150000D01*
X65848000Y-82505000D02*
X65772000Y-81845000D01*
X65966000Y-83135000D02*
X65848000Y-82505000D01*
X66119000Y-83739000D02*
X65966000Y-83135000D01*
X66944000Y-85991000D02*
X66119000Y-83739000D01*
X67772000Y-88203000D02*
X66944000Y-85991000D01*
X67928000Y-88785000D02*
X67772000Y-88203000D01*
X68048000Y-89388000D02*
X67928000Y-88785000D01*
X68128000Y-90016000D02*
X68048000Y-89388000D01*
X68158000Y-90675000D02*
X68128000Y-90016000D01*
X68134000Y-91334000D02*
X68158000Y-90675000D01*
X68060000Y-91962000D02*
X68134000Y-91334000D01*
X67943000Y-92565000D02*
X68060000Y-91962000D01*
X67790000Y-93147000D02*
X67943000Y-92565000D01*
X66959000Y-95359000D02*
X67790000Y-93147000D01*
X66125000Y-97611000D02*
X66959000Y-95359000D01*
X65969000Y-98215000D02*
X66125000Y-97611000D01*
X65850000Y-98845000D02*
X65969000Y-98215000D01*
X65772000Y-99505000D02*
X65850000Y-98845000D01*
X65745000Y-100200000D02*
X65772000Y-99505000D01*
X65782000Y-101008000D02*
X65745000Y-100200000D01*
X65891000Y-101765000D02*
X65782000Y-101008000D01*
X66071000Y-102472000D02*
X65891000Y-101765000D01*
X66320000Y-103127000D02*
X66071000Y-102472000D01*
X66636000Y-103731000D02*
X66320000Y-103127000D01*
X67017000Y-104283000D02*
X66636000Y-103731000D01*
X67462000Y-104784000D02*
X67017000Y-104283000D01*
X67968000Y-105232000D02*
X67462000Y-104784000D01*
X68533000Y-105629000D02*
X67968000Y-105232000D01*
X69156000Y-105973000D02*
X68533000Y-105629000D01*
X69834000Y-106265000D02*
X69156000Y-105973000D01*
X70567000Y-106504000D02*
X69834000Y-106265000D01*
X71352000Y-106691000D02*
X70567000Y-106504000D01*
X72187000Y-106824000D02*
X71352000Y-106691000D01*
X73070000Y-106904000D02*
X72187000Y-106824000D01*
X74000000Y-106931000D02*
X73070000Y-106904000D01*
X80713000Y-110214000D02*
X80350000Y-109725000D01*
X81026000Y-110745000D02*
X80713000Y-110214000D01*
X81295000Y-111311000D02*
X81026000Y-110745000D01*
X81521000Y-111906000D02*
X81295000Y-111311000D01*
X81863000Y-113163000D02*
X81521000Y-111906000D01*
X82079000Y-114468000D02*
X81863000Y-113163000D01*
X82249000Y-117040000D02*
X82079000Y-114468000D01*
X82255000Y-119250000D02*
X82249000Y-117040000D01*
X66817000Y-35057000D02*
X67396000Y-33398000D01*
X66285000Y-37198000D02*
X66817000Y-35057000D01*
X65896000Y-39852000D02*
X66285000Y-37198000D01*
X65745000Y-43050000D02*
X65896000Y-39852000D01*
X81183000Y-127243000D02*
X80604000Y-128902000D01*
X81715000Y-125102000D02*
X81183000Y-127243000D01*
X82104000Y-122448000D02*
X81715000Y-125102000D01*
X82255000Y-119250000D02*
X82104000Y-122448000D01*
X69825000Y-34771000D02*
X71460000Y-33398000D01*
X68957000Y-35641000D02*
X69825000Y-34771000D01*
X68127000Y-36675000D02*
X68957000Y-35641000D01*
X67742000Y-37263000D02*
X68127000Y-36675000D01*
X67387000Y-37902000D02*
X67742000Y-37263000D01*
X67069000Y-38598000D02*
X67387000Y-37902000D01*
X66793000Y-39354000D02*
X67069000Y-38598000D01*
X66567000Y-40173000D02*
X66793000Y-39354000D01*
X66397000Y-41059000D02*
X66567000Y-40173000D01*
X66290000Y-42017000D02*
X66397000Y-41059000D01*
X66253000Y-43050000D02*
X66290000Y-42017000D01*
X66280000Y-62795000D02*
X66253000Y-62100000D01*
X66356000Y-63455000D02*
X66280000Y-62795000D01*
X66474000Y-64085000D02*
X66356000Y-63455000D01*
X66627000Y-64689000D02*
X66474000Y-64085000D01*
X67452000Y-66941000D02*
X66627000Y-64689000D01*
X68280000Y-69153000D02*
X67452000Y-66941000D01*
X68436000Y-69735000D02*
X68280000Y-69153000D01*
X68556000Y-70338000D02*
X68436000Y-69735000D01*
X68636000Y-70966000D02*
X68556000Y-70338000D01*
X68666000Y-71625000D02*
X68636000Y-70966000D01*
X68642000Y-72284000D02*
X68666000Y-71625000D01*
X68568000Y-72912000D02*
X68642000Y-72284000D01*
X68451000Y-73515000D02*
X68568000Y-72912000D01*
X68298000Y-74097000D02*
X68451000Y-73515000D01*
X67467000Y-76309000D02*
X68298000Y-74097000D01*
X66633000Y-78561000D02*
X67467000Y-76309000D01*
X66477000Y-79165000D02*
X66633000Y-78561000D01*
X66358000Y-79795000D02*
X66477000Y-79165000D01*
X66280000Y-80455000D02*
X66358000Y-79795000D01*
X66253000Y-81150000D02*
X66280000Y-80455000D01*
X66280000Y-43745000D02*
X66253000Y-43050000D01*
X66356000Y-44405000D02*
X66280000Y-43745000D01*
X66474000Y-45035000D02*
X66356000Y-44405000D01*
X66627000Y-45639000D02*
X66474000Y-45035000D01*
X67452000Y-47891000D02*
X66627000Y-45639000D01*
X68280000Y-50103000D02*
X67452000Y-47891000D01*
X68436000Y-50685000D02*
X68280000Y-50103000D01*
X68556000Y-51288000D02*
X68436000Y-50685000D01*
X68636000Y-51916000D02*
X68556000Y-51288000D01*
X68666000Y-52575000D02*
X68636000Y-51916000D01*
X68642000Y-53234000D02*
X68666000Y-52575000D01*
X68568000Y-53862000D02*
X68642000Y-53234000D01*
X68451000Y-54465000D02*
X68568000Y-53862000D01*
X68298000Y-55047000D02*
X68451000Y-54465000D01*
X67467000Y-57259000D02*
X68298000Y-55047000D01*
X66633000Y-59511000D02*
X67467000Y-57259000D01*
X66477000Y-60115000D02*
X66633000Y-59511000D01*
X66358000Y-60745000D02*
X66477000Y-60115000D01*
X66280000Y-61405000D02*
X66358000Y-60745000D01*
X66253000Y-62100000D02*
X66280000Y-61405000D01*
X73180000Y-87847000D02*
X74000000Y-87881000D01*
X72391000Y-87748000D02*
X73180000Y-87847000D01*
X71634000Y-87586000D02*
X72391000Y-87748000D01*
X70914000Y-87365000D02*
X71634000Y-87586000D01*
X70234000Y-87087000D02*
X70914000Y-87365000D01*
X69595000Y-86756000D02*
X70234000Y-87087000D01*
X69003000Y-86374000D02*
X69595000Y-86756000D01*
X68460000Y-85944000D02*
X69003000Y-86374000D01*
X67968000Y-85470000D02*
X68460000Y-85944000D01*
X67532000Y-84954000D02*
X67968000Y-85470000D01*
X67154000Y-84399000D02*
X67532000Y-84954000D01*
X66838000Y-83809000D02*
X67154000Y-84399000D01*
X66587000Y-83186000D02*
X66838000Y-83809000D01*
X66404000Y-82533000D02*
X66587000Y-83186000D01*
X66291000Y-81853000D02*
X66404000Y-82533000D01*
X66253000Y-81150000D02*
X66291000Y-81853000D01*
X78175000Y-127529000D02*
X76540000Y-128902000D01*
X79043000Y-126659000D02*
X78175000Y-127529000D01*
X79873000Y-125625000D02*
X79043000Y-126659000D01*
X80258000Y-125037000D02*
X79873000Y-125625000D01*
X80613000Y-124398000D02*
X80258000Y-125037000D01*
X80931000Y-123702000D02*
X80613000Y-124398000D01*
X81207000Y-122946000D02*
X80931000Y-123702000D01*
X81433000Y-122127000D02*
X81207000Y-122946000D01*
X81603000Y-121241000D02*
X81433000Y-122127000D01*
X81710000Y-120283000D02*
X81603000Y-121241000D01*
X81747000Y-119250000D02*
X81710000Y-120283000D01*
X81720000Y-118555000D02*
X81747000Y-119250000D01*
X81644000Y-117895000D02*
X81720000Y-118555000D01*
X81526000Y-117265000D02*
X81644000Y-117895000D01*
X81373000Y-116661000D02*
X81526000Y-117265000D01*
X80548000Y-114409000D02*
X81373000Y-116661000D01*
X79720000Y-112197000D02*
X80548000Y-114409000D01*
X79564000Y-111615000D02*
X79720000Y-112197000D01*
X79444000Y-111012000D02*
X79564000Y-111615000D01*
X79364000Y-110384000D02*
X79444000Y-111012000D01*
X79334000Y-109725000D02*
X79364000Y-110384000D01*
X79358000Y-109066000D02*
X79334000Y-109725000D01*
X79432000Y-108438000D02*
X79358000Y-109066000D01*
X79549000Y-107835000D02*
X79432000Y-108438000D01*
X79702000Y-107253000D02*
X79549000Y-107835000D01*
X80533000Y-105041000D02*
X79702000Y-107253000D01*
X81462000Y-102714000D02*
X80533000Y-105041000D01*
X82118000Y-100490000D02*
X81462000Y-102714000D01*
X82508000Y-98388000D02*
X82118000Y-100490000D01*
X82606000Y-97389000D02*
X82508000Y-98388000D01*
X82641000Y-96426000D02*
X82606000Y-97389000D01*
X82614000Y-95503000D02*
X82641000Y-96426000D01*
X82525000Y-94622000D02*
X82614000Y-95503000D01*
X82376000Y-93785000D02*
X82525000Y-94622000D01*
X82168000Y-92995000D02*
X82376000Y-93785000D01*
X81901000Y-92254000D02*
X82168000Y-92995000D01*
X81578000Y-91563000D02*
X81901000Y-92254000D01*
X81198000Y-90926000D02*
X81578000Y-91563000D01*
X80763000Y-90345000D02*
X81198000Y-90926000D01*
D13*
X82001000Y-127251000D03*
X74000000Y-125981000D03*
X74000000Y-49781000D03*
X74000000Y-68831000D03*
X80223000Y-70355000D03*
X74000000Y-106931000D03*
X80350000Y-109725000D03*
X80763000Y-90345000D03*
X74000000Y-87881000D03*
X77048000Y-52067000D03*
X72984000Y-52067000D03*
X77048000Y-71117000D03*
X72984000Y-90167000D03*
X69682000Y-134744000D03*
X78318000Y-134744000D03*
X66380000Y-129918000D03*
X78572000Y-129918000D03*
X69682000Y-27556000D03*
X74508000Y-129918000D03*
X70444000Y-129918000D03*
X77048000Y-109217000D03*
X72984000Y-109217000D03*
X81620000Y-32382000D03*
X77556000Y-32382000D03*
X73492000Y-32382000D03*
X69428000Y-32382000D03*
X74000000Y-133537500D03*
X74000000Y-28762500D03*
X78318000Y-27556000D03*
X71460000Y-33398000D03*
X67396000Y-33398000D03*
X79588000Y-33398000D03*
X75524000Y-33398000D03*
X70952000Y-110233000D03*
X79334000Y-132712000D03*
X75016000Y-110233000D03*
X68666000Y-29588000D03*
X74000000Y-119250000D03*
X79080000Y-119250000D03*
X68920000Y-119250000D03*
X71460000Y-114170000D03*
X77810000Y-116710000D03*
X77810000Y-40510000D03*
X71460000Y-37970000D03*
X68920000Y-43050000D03*
X79080000Y-43050000D03*
X74000000Y-43050000D03*
X74000000Y-100200000D03*
X79080000Y-100200000D03*
X68920000Y-100200000D03*
X71460000Y-95120000D03*
X77810000Y-97660000D03*
X77810000Y-78610000D03*
X71460000Y-76070000D03*
X68920000Y-81150000D03*
X79080000Y-81150000D03*
X74000000Y-81150000D03*
X74000000Y-62100000D03*
X79080000Y-62100000D03*
X68920000Y-62100000D03*
X71460000Y-57020000D03*
X77810000Y-59560000D03*
X80602000Y-128902000D03*
X76538000Y-128902000D03*
X72476000Y-128902000D03*
X68410000Y-128902000D03*
X79334000Y-29588000D03*
X68664000Y-132712000D03*
X75016000Y-72133000D03*
X70952000Y-53083000D03*
X75016000Y-53083000D03*
X70952000Y-91183000D03*
M02*
