M48
METRIC,TZ
T1C0.400
T2C1.200
%
G90
G05
T1
X74.Y-49.781
X74.Y-68.831
X74.Y-87.881
X74.Y-106.931
X74.Y-125.981
X80.223Y-70.355
X80.35Y-109.725
X80.763Y-90.345
X82.001Y-127.251
T2
X75.016Y-53.083
X75.016Y-110.233
X68.664Y-132.712
X68.666Y-29.588
X79.588Y-33.398
X75.524Y-33.398
X71.46Y-33.398
X70.952Y-91.183
X68.41Y-128.902
X76.538Y-128.902
X67.396Y-33.398
X80.602Y-128.902
X70.952Y-110.233
X79.334Y-29.588
X75.016Y-72.133
X72.476Y-128.902
X70.952Y-53.083
X79.334Y-132.712
T0
M30
