%TF.GenerationSoftware,KiCad,Pcbnew,5.0.0+dfsg1-2*%
%TF.CreationDate,2019-02-10T19:22:37+01:00*%
%TF.ProjectId,yatara-puno-mx-5,7961746172612D70756E6F2D6D782D35,0.2*%
%TF.SameCoordinates,Original*%
%TF.FileFunction,Copper,L1,Top,Signal*%
%TF.FilePolarity,Positive*%
%FSLAX46Y46*%
G04 Gerber Fmt 4.6, Leading zero omitted, Abs format (unit mm)*
G04 Created by KiCad (PCBNEW 5.0.0+dfsg1-2) date Sun Feb 10 19:22:37 2019*
%MOMM*%
%LPD*%
G01*
G04 APERTURE LIST*
%ADD10R,0.900000X1.200000*%
%ADD11C,2.500000*%
%ADD12R,2.550000X2.500000*%
%ADD13C,0.800000*%
%ADD14C,0.250000*%
%ADD15C,0.350000*%
G04 APERTURE END LIST*
D10*
X67270000Y-46098000D03*
X70570000Y-46098000D03*
X67270000Y-65148000D03*
X70570000Y-65148000D03*
X67270000Y-84198000D03*
X70570000Y-84198000D03*
X67270000Y-103248000D03*
X70570000Y-103248000D03*
X67270000Y-122298000D03*
X70570000Y-122298000D03*
D11*
X71460000Y-33398000D03*
X67396000Y-33398000D03*
X79588000Y-33398000D03*
X75524000Y-33398000D03*
X70952000Y-110233000D03*
X79334000Y-132712000D03*
X75016000Y-110233000D03*
X68666000Y-29588000D03*
D12*
X67910000Y-114170000D03*
X81360000Y-116710000D03*
X81360000Y-40510000D03*
X67910000Y-37970000D03*
X67910000Y-95120000D03*
X81360000Y-97660000D03*
X81360000Y-78610000D03*
X67910000Y-76070000D03*
X67910000Y-57020000D03*
X81360000Y-59560000D03*
D11*
X80602000Y-128902000D03*
X76538000Y-128902000D03*
X72476000Y-128902000D03*
X68410000Y-128902000D03*
X79334000Y-29588000D03*
X68664000Y-132712000D03*
X75016000Y-72133000D03*
X70952000Y-53083000D03*
X75016000Y-53083000D03*
X70952000Y-91183000D03*
D13*
X82001000Y-127251000D03*
X74000000Y-125981000D03*
X74000000Y-49781000D03*
X74000000Y-68831000D03*
X80223000Y-70355000D03*
X74000000Y-106931000D03*
X80350000Y-109725000D03*
X80763000Y-90345000D03*
X74000000Y-87881000D03*
D14*
X67524000Y-38459000D02*
X67904000Y-37970000D01*
X67194000Y-38970000D02*
X67524000Y-38459000D01*
X66913000Y-39500000D02*
X67194000Y-38970000D01*
X66680000Y-40044000D02*
X66913000Y-39500000D01*
X66493000Y-40597000D02*
X66680000Y-40044000D01*
X66352000Y-41156000D02*
X66493000Y-40597000D01*
X66257000Y-41715000D02*
X66352000Y-41156000D01*
X66205000Y-42272000D02*
X66257000Y-41715000D01*
X66197000Y-42821000D02*
X66205000Y-42272000D01*
X66231000Y-43359000D02*
X66197000Y-42821000D01*
X66306000Y-43880000D02*
X66231000Y-43359000D01*
X66422000Y-44382000D02*
X66306000Y-43880000D01*
X66577000Y-44858000D02*
X66422000Y-44382000D01*
X66770000Y-45306000D02*
X66577000Y-44858000D01*
X67001000Y-45721000D02*
X66770000Y-45306000D01*
X67269000Y-46098000D02*
X67001000Y-45721000D01*
X67524000Y-57509000D02*
X67904000Y-57020000D01*
X67194000Y-58020000D02*
X67524000Y-57509000D01*
X66913000Y-58550000D02*
X67194000Y-58020000D01*
X66680000Y-59094000D02*
X66913000Y-58550000D01*
X66493000Y-59647000D02*
X66680000Y-59094000D01*
X66352000Y-60206000D02*
X66493000Y-59647000D01*
X66257000Y-60765000D02*
X66352000Y-60206000D01*
X66205000Y-61322000D02*
X66257000Y-60765000D01*
X66197000Y-61871000D02*
X66205000Y-61322000D01*
X66231000Y-62409000D02*
X66197000Y-61871000D01*
X66306000Y-62930000D02*
X66231000Y-62409000D01*
X66422000Y-63432000D02*
X66306000Y-62930000D01*
X66577000Y-63908000D02*
X66422000Y-63432000D01*
X66770000Y-64356000D02*
X66577000Y-63908000D01*
X67001000Y-64771000D02*
X66770000Y-64356000D01*
X67269000Y-65148000D02*
X67001000Y-64771000D01*
X67524000Y-76559000D02*
X67904000Y-76070000D01*
X67194000Y-77070000D02*
X67524000Y-76559000D01*
X66913000Y-77600000D02*
X67194000Y-77070000D01*
X66680000Y-78144000D02*
X66913000Y-77600000D01*
X66493000Y-78697000D02*
X66680000Y-78144000D01*
X66352000Y-79256000D02*
X66493000Y-78697000D01*
X66257000Y-79815000D02*
X66352000Y-79256000D01*
X66205000Y-80372000D02*
X66257000Y-79815000D01*
X66197000Y-80921000D02*
X66205000Y-80372000D01*
X66231000Y-81459000D02*
X66197000Y-80921000D01*
X66306000Y-81980000D02*
X66231000Y-81459000D01*
X66422000Y-82482000D02*
X66306000Y-81980000D01*
X66577000Y-82958000D02*
X66422000Y-82482000D01*
X66770000Y-83406000D02*
X66577000Y-82958000D01*
X67001000Y-83821000D02*
X66770000Y-83406000D01*
X67269000Y-84198000D02*
X67001000Y-83821000D01*
X67524000Y-95609000D02*
X67904000Y-95120000D01*
X67194000Y-96120000D02*
X67524000Y-95609000D01*
X66913000Y-96650000D02*
X67194000Y-96120000D01*
X66680000Y-97194000D02*
X66913000Y-96650000D01*
X66493000Y-97747000D02*
X66680000Y-97194000D01*
X66352000Y-98306000D02*
X66493000Y-97747000D01*
X66257000Y-98865000D02*
X66352000Y-98306000D01*
X66205000Y-99422000D02*
X66257000Y-98865000D01*
X66197000Y-99971000D02*
X66205000Y-99422000D01*
X66231000Y-100509000D02*
X66197000Y-99971000D01*
X66306000Y-101030000D02*
X66231000Y-100509000D01*
X66422000Y-101532000D02*
X66306000Y-101030000D01*
X66577000Y-102008000D02*
X66422000Y-101532000D01*
X66770000Y-102456000D02*
X66577000Y-102008000D01*
X67001000Y-102871000D02*
X66770000Y-102456000D01*
X67269000Y-103248000D02*
X67001000Y-102871000D01*
X79540000Y-29317000D02*
X79334000Y-29588000D01*
X79705000Y-29051000D02*
X79540000Y-29317000D01*
X79832000Y-28791000D02*
X79705000Y-29051000D01*
X79923000Y-28537000D02*
X79832000Y-28791000D01*
X79954000Y-28412000D02*
X79923000Y-28537000D01*
X79978000Y-28288000D02*
X79954000Y-28412000D01*
X79992000Y-28166000D02*
X79978000Y-28288000D01*
X79999000Y-28046000D02*
X79992000Y-28166000D01*
X79998000Y-27928000D02*
X79999000Y-28046000D01*
X79988000Y-27811000D02*
X79998000Y-27928000D01*
X79971000Y-27695000D02*
X79988000Y-27811000D01*
X79947000Y-27582000D02*
X79971000Y-27695000D01*
X79916000Y-27470000D02*
X79947000Y-27582000D01*
X79877000Y-27360000D02*
X79916000Y-27470000D01*
X79780000Y-27145000D02*
X79877000Y-27360000D01*
X79657000Y-26937000D02*
X79780000Y-27145000D01*
X79510000Y-26737000D02*
X79657000Y-26937000D01*
X79341000Y-26545000D02*
X79510000Y-26737000D01*
X79151000Y-26360000D02*
X79341000Y-26545000D01*
X78942000Y-26184000D02*
X79151000Y-26360000D01*
X78715000Y-26016000D02*
X78942000Y-26184000D01*
X78215000Y-25706000D02*
X78715000Y-26016000D01*
X77663000Y-25432000D02*
X78215000Y-25706000D01*
X77074000Y-25195000D02*
X77663000Y-25432000D01*
X76459000Y-24998000D02*
X77074000Y-25195000D01*
X75831000Y-24842000D02*
X76459000Y-24998000D01*
X75203000Y-24728000D02*
X75831000Y-24842000D01*
X74589000Y-24659000D02*
X75203000Y-24728000D01*
X74000000Y-24635000D02*
X74589000Y-24659000D01*
X73106000Y-24679000D02*
X74000000Y-24635000D01*
X72238000Y-24808000D02*
X73106000Y-24679000D01*
X71399000Y-25019000D02*
X72238000Y-24808000D01*
X70595000Y-25308000D02*
X71399000Y-25019000D01*
X69829000Y-25670000D02*
X70595000Y-25308000D01*
X69107000Y-26102000D02*
X69829000Y-25670000D01*
X68432000Y-26599000D02*
X69107000Y-26102000D01*
X67809000Y-27159000D02*
X68432000Y-26599000D01*
X67242000Y-27777000D02*
X67809000Y-27159000D01*
X66737000Y-28449000D02*
X67242000Y-27777000D01*
X66297000Y-29171000D02*
X66737000Y-28449000D01*
X65928000Y-29939000D02*
X66297000Y-29171000D01*
X65632000Y-30750000D02*
X65928000Y-29939000D01*
X65416000Y-31599000D02*
X65632000Y-30750000D01*
X65282000Y-32483000D02*
X65416000Y-31599000D01*
X65237000Y-33398000D02*
X65282000Y-32483000D01*
X65247000Y-33632000D02*
X65237000Y-33398000D01*
X65278000Y-33855000D02*
X65247000Y-33632000D01*
X65327000Y-34069000D02*
X65278000Y-33855000D01*
X65396000Y-34271000D02*
X65327000Y-34069000D01*
X65482000Y-34462000D02*
X65396000Y-34271000D01*
X65585000Y-34639000D02*
X65482000Y-34462000D01*
X65705000Y-34804000D02*
X65585000Y-34639000D01*
X65840000Y-34954000D02*
X65705000Y-34804000D01*
X65990000Y-35089000D02*
X65840000Y-34954000D01*
X66155000Y-35209000D02*
X65990000Y-35089000D01*
X66332000Y-35312000D02*
X66155000Y-35209000D01*
X66523000Y-35398000D02*
X66332000Y-35312000D01*
X66725000Y-35467000D02*
X66523000Y-35398000D01*
X66939000Y-35516000D02*
X66725000Y-35467000D01*
X67162000Y-35547000D02*
X66939000Y-35516000D01*
X67396000Y-35557000D02*
X67162000Y-35547000D01*
X80096000Y-35557000D02*
X67396000Y-35557000D01*
X80330000Y-35566000D02*
X80096000Y-35557000D01*
X80553000Y-35592000D02*
X80330000Y-35566000D01*
X80767000Y-35637000D02*
X80553000Y-35592000D01*
X80969000Y-35698000D02*
X80767000Y-35637000D01*
X81160000Y-35776000D02*
X80969000Y-35698000D01*
X81337000Y-35872000D02*
X81160000Y-35776000D01*
X81502000Y-35984000D02*
X81337000Y-35872000D01*
X81652000Y-36113000D02*
X81502000Y-35984000D01*
X81787000Y-36258000D02*
X81652000Y-36113000D01*
X81907000Y-36419000D02*
X81787000Y-36258000D01*
X82010000Y-36596000D02*
X81907000Y-36419000D01*
X82096000Y-36789000D02*
X82010000Y-36596000D01*
X82165000Y-36998000D02*
X82096000Y-36789000D01*
X82214000Y-37222000D02*
X82165000Y-36998000D01*
X82245000Y-37462000D02*
X82214000Y-37222000D01*
X82255000Y-37716000D02*
X82245000Y-37462000D01*
X82255000Y-40510000D02*
X82255000Y-37716000D01*
X82255000Y-59560000D02*
X82255000Y-40510000D01*
X82255000Y-78610000D02*
X82255000Y-59560000D01*
X82255000Y-97660000D02*
X82255000Y-78610000D01*
X82255000Y-116710000D02*
X82255000Y-97660000D01*
X82763000Y-127251000D02*
X82255000Y-116710000D01*
X82763000Y-128902000D02*
X82763000Y-127251000D01*
X81293000Y-77935000D02*
X81366000Y-78610000D01*
X81171000Y-77290000D02*
X81293000Y-77935000D01*
X81001000Y-76677000D02*
X81171000Y-77290000D01*
X80785000Y-76098000D02*
X81001000Y-76677000D01*
X80522000Y-75553000D02*
X80785000Y-76098000D01*
X80216000Y-75043000D02*
X80522000Y-75553000D01*
X79867000Y-74569000D02*
X80216000Y-75043000D01*
X79477000Y-74133000D02*
X79867000Y-74569000D01*
X79046000Y-73736000D02*
X79477000Y-74133000D01*
X78577000Y-73379000D02*
X79046000Y-73736000D01*
X78070000Y-73062000D02*
X78577000Y-73379000D01*
X77526000Y-72788000D02*
X78070000Y-73062000D01*
X76948000Y-72557000D02*
X77526000Y-72788000D01*
X76336000Y-72370000D02*
X76948000Y-72557000D01*
X75691000Y-72228000D02*
X76336000Y-72370000D01*
X75016000Y-72133000D02*
X75691000Y-72228000D01*
X68460000Y-132983000D02*
X68666000Y-132712000D01*
X68295000Y-133249000D02*
X68460000Y-132983000D01*
X68168000Y-133509000D02*
X68295000Y-133249000D01*
X68077000Y-133763000D02*
X68168000Y-133509000D01*
X68046000Y-133888000D02*
X68077000Y-133763000D01*
X68022000Y-134012000D02*
X68046000Y-133888000D01*
X68008000Y-134134000D02*
X68022000Y-134012000D01*
X68001000Y-134254000D02*
X68008000Y-134134000D01*
X68002000Y-134372000D02*
X68001000Y-134254000D01*
X68012000Y-134489000D02*
X68002000Y-134372000D01*
X68029000Y-134605000D02*
X68012000Y-134489000D01*
X68053000Y-134718000D02*
X68029000Y-134605000D01*
X68084000Y-134830000D02*
X68053000Y-134718000D01*
X68123000Y-134940000D02*
X68084000Y-134830000D01*
X68220000Y-135155000D02*
X68123000Y-134940000D01*
X68343000Y-135363000D02*
X68220000Y-135155000D01*
X68490000Y-135563000D02*
X68343000Y-135363000D01*
X68659000Y-135755000D02*
X68490000Y-135563000D01*
X68849000Y-135940000D02*
X68659000Y-135755000D01*
X69058000Y-136116000D02*
X68849000Y-135940000D01*
X69285000Y-136284000D02*
X69058000Y-136116000D01*
X69785000Y-136594000D02*
X69285000Y-136284000D01*
X70337000Y-136868000D02*
X69785000Y-136594000D01*
X70926000Y-137105000D02*
X70337000Y-136868000D01*
X71541000Y-137302000D02*
X70926000Y-137105000D01*
X72169000Y-137458000D02*
X71541000Y-137302000D01*
X72797000Y-137572000D02*
X72169000Y-137458000D01*
X73411000Y-137641000D02*
X72797000Y-137572000D01*
X74000000Y-137665000D02*
X73411000Y-137641000D01*
X74894000Y-137621000D02*
X74000000Y-137665000D01*
X75762000Y-137492000D02*
X74894000Y-137621000D01*
X76601000Y-137281000D02*
X75762000Y-137492000D01*
X77405000Y-136992000D02*
X76601000Y-137281000D01*
X78171000Y-136630000D02*
X77405000Y-136992000D01*
X78893000Y-136198000D02*
X78171000Y-136630000D01*
X79568000Y-135701000D02*
X78893000Y-136198000D01*
X80191000Y-135141000D02*
X79568000Y-135701000D01*
X80758000Y-134523000D02*
X80191000Y-135141000D01*
X81263000Y-133851000D02*
X80758000Y-134523000D01*
X81703000Y-133129000D02*
X81263000Y-133851000D01*
X82072000Y-132361000D02*
X81703000Y-133129000D01*
X82368000Y-131550000D02*
X82072000Y-132361000D01*
X82584000Y-130701000D02*
X82368000Y-131550000D01*
X82718000Y-129817000D02*
X82584000Y-130701000D01*
X82763000Y-128902000D02*
X82718000Y-129817000D01*
X67524000Y-114659000D02*
X67904000Y-114170000D01*
X67194000Y-115170000D02*
X67524000Y-114659000D01*
X66913000Y-115700000D02*
X67194000Y-115170000D01*
X66680000Y-116244000D02*
X66913000Y-115700000D01*
X66493000Y-116797000D02*
X66680000Y-116244000D01*
X66352000Y-117356000D02*
X66493000Y-116797000D01*
X66257000Y-117915000D02*
X66352000Y-117356000D01*
X66205000Y-118472000D02*
X66257000Y-117915000D01*
X66197000Y-119021000D02*
X66205000Y-118472000D01*
X66231000Y-119559000D02*
X66197000Y-119021000D01*
X66306000Y-120080000D02*
X66231000Y-119559000D01*
X66422000Y-120582000D02*
X66306000Y-120080000D01*
X66577000Y-121058000D02*
X66422000Y-120582000D01*
X66770000Y-121506000D02*
X66577000Y-121058000D01*
X67001000Y-121921000D02*
X66770000Y-121506000D01*
X67269000Y-122298000D02*
X67001000Y-121921000D01*
X73824000Y-125975000D02*
X74000000Y-125981000D01*
X73651000Y-125958000D02*
X73824000Y-125975000D01*
X73483000Y-125929000D02*
X73651000Y-125958000D01*
X73319000Y-125890000D02*
X73483000Y-125929000D01*
X73160000Y-125841000D02*
X73319000Y-125890000D01*
X73005000Y-125782000D02*
X73160000Y-125841000D01*
X72708000Y-125637000D02*
X73005000Y-125782000D01*
X72428000Y-125458000D02*
X72708000Y-125637000D01*
X72166000Y-125249000D02*
X72428000Y-125458000D01*
X71923000Y-125014000D02*
X72166000Y-125249000D01*
X71697000Y-124756000D02*
X71923000Y-125014000D01*
X71490000Y-124479000D02*
X71697000Y-124756000D01*
X71301000Y-124186000D02*
X71490000Y-124479000D01*
X70980000Y-123567000D02*
X71301000Y-124186000D01*
X70737000Y-122928000D02*
X70980000Y-123567000D01*
X70571000Y-122298000D02*
X70737000Y-122928000D01*
X70504000Y-121904000D02*
X70571000Y-122298000D01*
X70460000Y-121499000D02*
X70504000Y-121904000D01*
X70448000Y-120673000D02*
X70460000Y-121499000D01*
X70481000Y-120256000D02*
X70448000Y-120673000D01*
X70540000Y-119840000D02*
X70481000Y-120256000D01*
X70626000Y-119428000D02*
X70540000Y-119840000D01*
X70741000Y-119022000D02*
X70626000Y-119428000D01*
X70883000Y-118626000D02*
X70741000Y-119022000D01*
X71055000Y-118241000D02*
X70883000Y-118626000D01*
X71256000Y-117870000D02*
X71055000Y-118241000D01*
X71488000Y-117517000D02*
X71256000Y-117870000D01*
X71751000Y-117184000D02*
X71488000Y-117517000D01*
X72045000Y-116873000D02*
X71751000Y-117184000D01*
X72371000Y-116587000D02*
X72045000Y-116873000D01*
X72730000Y-116329000D02*
X72371000Y-116587000D01*
X73111000Y-116058000D02*
X72730000Y-116329000D01*
X73448000Y-115770000D02*
X73111000Y-116058000D01*
X73743000Y-115465000D02*
X73448000Y-115770000D01*
X73998000Y-115144000D02*
X73743000Y-115465000D01*
X74217000Y-114808000D02*
X73998000Y-115144000D01*
X74402000Y-114456000D02*
X74217000Y-114808000D01*
X74556000Y-114090000D02*
X74402000Y-114456000D01*
X74683000Y-113710000D02*
X74556000Y-114090000D01*
X74862000Y-112910000D02*
X74683000Y-113710000D01*
X74962000Y-112061000D02*
X74862000Y-112910000D01*
X75016000Y-110233000D02*
X74962000Y-112061000D01*
X81783000Y-127075000D02*
X82001000Y-127251000D01*
X81551000Y-126915000D02*
X81783000Y-127075000D01*
X81306000Y-126770000D02*
X81551000Y-126915000D01*
X81051000Y-126640000D02*
X81306000Y-126770000D01*
X80517000Y-126419000D02*
X81051000Y-126640000D01*
X79961000Y-126249000D02*
X80517000Y-126419000D01*
X79398000Y-126125000D02*
X79961000Y-126249000D01*
X78843000Y-126042000D02*
X79398000Y-126125000D01*
X77810000Y-125981000D02*
X78843000Y-126042000D01*
X74000000Y-125981000D02*
X77810000Y-125981000D01*
X70965000Y-52732000D02*
X70952000Y-53083000D01*
X71005000Y-52394000D02*
X70965000Y-52732000D01*
X71070000Y-52071000D02*
X71005000Y-52394000D01*
X71160000Y-51763000D02*
X71070000Y-52071000D01*
X71275000Y-51473000D02*
X71160000Y-51763000D01*
X71414000Y-51201000D02*
X71275000Y-51473000D01*
X71576000Y-50949000D02*
X71414000Y-51201000D01*
X71762000Y-50718000D02*
X71576000Y-50949000D01*
X71969000Y-50509000D02*
X71762000Y-50718000D01*
X72198000Y-50323000D02*
X71969000Y-50509000D01*
X72449000Y-50163000D02*
X72198000Y-50323000D01*
X72720000Y-50029000D02*
X72449000Y-50163000D01*
X73011000Y-49922000D02*
X72720000Y-50029000D01*
X73322000Y-49845000D02*
X73011000Y-49922000D01*
X73652000Y-49797000D02*
X73322000Y-49845000D01*
X74000000Y-49781000D02*
X73652000Y-49797000D01*
X73824000Y-49775000D02*
X74000000Y-49781000D01*
X73651000Y-49758000D02*
X73824000Y-49775000D01*
X73483000Y-49729000D02*
X73651000Y-49758000D01*
X73319000Y-49690000D02*
X73483000Y-49729000D01*
X73160000Y-49641000D02*
X73319000Y-49690000D01*
X73005000Y-49582000D02*
X73160000Y-49641000D01*
X72708000Y-49437000D02*
X73005000Y-49582000D01*
X72428000Y-49258000D02*
X72708000Y-49437000D01*
X72166000Y-49049000D02*
X72428000Y-49258000D01*
X71923000Y-48814000D02*
X72166000Y-49049000D01*
X71697000Y-48556000D02*
X71923000Y-48814000D01*
X71490000Y-48279000D02*
X71697000Y-48556000D01*
X71301000Y-47986000D02*
X71490000Y-48279000D01*
X70980000Y-47367000D02*
X71301000Y-47986000D01*
X70737000Y-46728000D02*
X70980000Y-47367000D01*
X70571000Y-46098000D02*
X70737000Y-46728000D01*
X70504000Y-64754000D02*
X70571000Y-65148000D01*
X70460000Y-64349000D02*
X70504000Y-64754000D01*
X70448000Y-63523000D02*
X70460000Y-64349000D01*
X70481000Y-63106000D02*
X70448000Y-63523000D01*
X70540000Y-62690000D02*
X70481000Y-63106000D01*
X70626000Y-62278000D02*
X70540000Y-62690000D01*
X70741000Y-61872000D02*
X70626000Y-62278000D01*
X70883000Y-61476000D02*
X70741000Y-61872000D01*
X71055000Y-61091000D02*
X70883000Y-61476000D01*
X71256000Y-60720000D02*
X71055000Y-61091000D01*
X71488000Y-60367000D02*
X71256000Y-60720000D01*
X71751000Y-60034000D02*
X71488000Y-60367000D01*
X72045000Y-59723000D02*
X71751000Y-60034000D01*
X72371000Y-59437000D02*
X72045000Y-59723000D01*
X72730000Y-59179000D02*
X72371000Y-59437000D01*
X73111000Y-58908000D02*
X72730000Y-59179000D01*
X73448000Y-58620000D02*
X73111000Y-58908000D01*
X73743000Y-58315000D02*
X73448000Y-58620000D01*
X73998000Y-57994000D02*
X73743000Y-58315000D01*
X74217000Y-57658000D02*
X73998000Y-57994000D01*
X74402000Y-57306000D02*
X74217000Y-57658000D01*
X74556000Y-56940000D02*
X74402000Y-57306000D01*
X74683000Y-56560000D02*
X74556000Y-56940000D01*
X74862000Y-55760000D02*
X74683000Y-56560000D01*
X74962000Y-54911000D02*
X74862000Y-55760000D01*
X75016000Y-53083000D02*
X74962000Y-54911000D01*
X73824000Y-68825000D02*
X74000000Y-68831000D01*
X73651000Y-68808000D02*
X73824000Y-68825000D01*
X73483000Y-68779000D02*
X73651000Y-68808000D01*
X73319000Y-68740000D02*
X73483000Y-68779000D01*
X73160000Y-68691000D02*
X73319000Y-68740000D01*
X73005000Y-68632000D02*
X73160000Y-68691000D01*
X72708000Y-68487000D02*
X73005000Y-68632000D01*
X72428000Y-68308000D02*
X72708000Y-68487000D01*
X72166000Y-68099000D02*
X72428000Y-68308000D01*
X71923000Y-67864000D02*
X72166000Y-68099000D01*
X71697000Y-67606000D02*
X71923000Y-67864000D01*
X71490000Y-67329000D02*
X71697000Y-67606000D01*
X71301000Y-67036000D02*
X71490000Y-67329000D01*
X70980000Y-66417000D02*
X71301000Y-67036000D01*
X70737000Y-65778000D02*
X70980000Y-66417000D01*
X70571000Y-65148000D02*
X70737000Y-65778000D01*
X79884000Y-70125000D02*
X80223000Y-70355000D01*
X79531000Y-69919000D02*
X79884000Y-70125000D01*
X78790000Y-69572000D02*
X79531000Y-69919000D01*
X78011000Y-69305000D02*
X78790000Y-69572000D01*
X77208000Y-69109000D02*
X78011000Y-69305000D01*
X75577000Y-68887000D02*
X77208000Y-69109000D01*
X74000000Y-68831000D02*
X75577000Y-68887000D01*
X70965000Y-109882000D02*
X70952000Y-110233000D01*
X71005000Y-109544000D02*
X70965000Y-109882000D01*
X71070000Y-109221000D02*
X71005000Y-109544000D01*
X71160000Y-108913000D02*
X71070000Y-109221000D01*
X71275000Y-108623000D02*
X71160000Y-108913000D01*
X71414000Y-108351000D02*
X71275000Y-108623000D01*
X71576000Y-108099000D02*
X71414000Y-108351000D01*
X71762000Y-107868000D02*
X71576000Y-108099000D01*
X71969000Y-107659000D02*
X71762000Y-107868000D01*
X72198000Y-107473000D02*
X71969000Y-107659000D01*
X72449000Y-107313000D02*
X72198000Y-107473000D01*
X72720000Y-107179000D02*
X72449000Y-107313000D01*
X73011000Y-107072000D02*
X72720000Y-107179000D01*
X73322000Y-106995000D02*
X73011000Y-107072000D01*
X73652000Y-106947000D02*
X73322000Y-106995000D01*
X74000000Y-106931000D02*
X73652000Y-106947000D01*
X74942000Y-106979000D02*
X74000000Y-106931000D01*
X75859000Y-107121000D02*
X74942000Y-106979000D01*
X76741000Y-107353000D02*
X75859000Y-107121000D01*
X77581000Y-107671000D02*
X76741000Y-107353000D01*
X78370000Y-108071000D02*
X77581000Y-107671000D01*
X79100000Y-108549000D02*
X78370000Y-108071000D01*
X79763000Y-109102000D02*
X79100000Y-108549000D01*
X80350000Y-109725000D02*
X79763000Y-109102000D01*
X73824000Y-106925000D02*
X74000000Y-106931000D01*
X73651000Y-106908000D02*
X73824000Y-106925000D01*
X73483000Y-106879000D02*
X73651000Y-106908000D01*
X73319000Y-106840000D02*
X73483000Y-106879000D01*
X73160000Y-106791000D02*
X73319000Y-106840000D01*
X73005000Y-106732000D02*
X73160000Y-106791000D01*
X72708000Y-106587000D02*
X73005000Y-106732000D01*
X72428000Y-106408000D02*
X72708000Y-106587000D01*
X72166000Y-106199000D02*
X72428000Y-106408000D01*
X71923000Y-105964000D02*
X72166000Y-106199000D01*
X71697000Y-105706000D02*
X71923000Y-105964000D01*
X71490000Y-105429000D02*
X71697000Y-105706000D01*
X71301000Y-105136000D02*
X71490000Y-105429000D01*
X70980000Y-104517000D02*
X71301000Y-105136000D01*
X70737000Y-103878000D02*
X70980000Y-104517000D01*
X70571000Y-103248000D02*
X70737000Y-103878000D01*
X70965000Y-90832000D02*
X70952000Y-91183000D01*
X71005000Y-90494000D02*
X70965000Y-90832000D01*
X71070000Y-90171000D02*
X71005000Y-90494000D01*
X71160000Y-89863000D02*
X71070000Y-90171000D01*
X71275000Y-89573000D02*
X71160000Y-89863000D01*
X71414000Y-89301000D02*
X71275000Y-89573000D01*
X71576000Y-89049000D02*
X71414000Y-89301000D01*
X71762000Y-88818000D02*
X71576000Y-89049000D01*
X71969000Y-88609000D02*
X71762000Y-88818000D01*
X72198000Y-88423000D02*
X71969000Y-88609000D01*
X72449000Y-88263000D02*
X72198000Y-88423000D01*
X72720000Y-88129000D02*
X72449000Y-88263000D01*
X73011000Y-88022000D02*
X72720000Y-88129000D01*
X73322000Y-87945000D02*
X73011000Y-88022000D01*
X73652000Y-87897000D02*
X73322000Y-87945000D01*
X74000000Y-87881000D02*
X73652000Y-87897000D01*
X80470000Y-90022000D02*
X80763000Y-90345000D01*
X80154000Y-89724000D02*
X80470000Y-90022000D01*
X79816000Y-89451000D02*
X80154000Y-89724000D01*
X79458000Y-89203000D02*
X79816000Y-89451000D01*
X79081000Y-88978000D02*
X79458000Y-89203000D01*
X78686000Y-88777000D02*
X79081000Y-88978000D01*
X77846000Y-88440000D02*
X78686000Y-88777000D01*
X76948000Y-88188000D02*
X77846000Y-88440000D01*
X76001000Y-88014000D02*
X76948000Y-88188000D01*
X75015000Y-87913000D02*
X76001000Y-88014000D01*
X74000000Y-87881000D02*
X75015000Y-87913000D01*
X73824000Y-87875000D02*
X74000000Y-87881000D01*
X73651000Y-87858000D02*
X73824000Y-87875000D01*
X73483000Y-87829000D02*
X73651000Y-87858000D01*
X73319000Y-87790000D02*
X73483000Y-87829000D01*
X73160000Y-87741000D02*
X73319000Y-87790000D01*
X73005000Y-87682000D02*
X73160000Y-87741000D01*
X72708000Y-87537000D02*
X73005000Y-87682000D01*
X72428000Y-87358000D02*
X72708000Y-87537000D01*
X72166000Y-87149000D02*
X72428000Y-87358000D01*
X71923000Y-86914000D02*
X72166000Y-87149000D01*
X71697000Y-86656000D02*
X71923000Y-86914000D01*
X71490000Y-86379000D02*
X71697000Y-86656000D01*
X71301000Y-86086000D02*
X71490000Y-86379000D01*
X70980000Y-85467000D02*
X71301000Y-86086000D01*
X70737000Y-84828000D02*
X70980000Y-85467000D01*
X70571000Y-84198000D02*
X70737000Y-84828000D01*
D15*
X82001000Y-127251000D03*
X74000000Y-125981000D03*
X74000000Y-49781000D03*
X74000000Y-68831000D03*
X80223000Y-70355000D03*
X74000000Y-106931000D03*
X80350000Y-109725000D03*
X80763000Y-90345000D03*
X74000000Y-87881000D03*
X77048000Y-52067000D03*
X72984000Y-52067000D03*
X77048000Y-71117000D03*
X72984000Y-90167000D03*
X69682000Y-134744000D03*
X78318000Y-134744000D03*
X66380000Y-129918000D03*
X78572000Y-129918000D03*
X69682000Y-27556000D03*
X74508000Y-129918000D03*
X70444000Y-129918000D03*
X77048000Y-109217000D03*
X72984000Y-109217000D03*
X81620000Y-32382000D03*
X77556000Y-32382000D03*
X73492000Y-32382000D03*
X69428000Y-32382000D03*
X74000000Y-133537500D03*
X74000000Y-28762500D03*
X78318000Y-27556000D03*
X71460000Y-33398000D03*
X67396000Y-33398000D03*
X79588000Y-33398000D03*
X75524000Y-33398000D03*
X70952000Y-110233000D03*
X79334000Y-132712000D03*
X75016000Y-110233000D03*
X68666000Y-29588000D03*
X74000000Y-119250000D03*
X79080000Y-119250000D03*
X68920000Y-119250000D03*
X71460000Y-114170000D03*
X77810000Y-116710000D03*
X77810000Y-40510000D03*
X71460000Y-37970000D03*
X68920000Y-43050000D03*
X79080000Y-43050000D03*
X74000000Y-43050000D03*
X74000000Y-100200000D03*
X79080000Y-100200000D03*
X68920000Y-100200000D03*
X71460000Y-95120000D03*
X77810000Y-97660000D03*
X77810000Y-78610000D03*
X71460000Y-76070000D03*
X68920000Y-81150000D03*
X79080000Y-81150000D03*
X74000000Y-81150000D03*
X74000000Y-62100000D03*
X79080000Y-62100000D03*
X68920000Y-62100000D03*
X71460000Y-57020000D03*
X77810000Y-59560000D03*
X80602000Y-128902000D03*
X76538000Y-128902000D03*
X72476000Y-128902000D03*
X68410000Y-128902000D03*
X79334000Y-29588000D03*
X68664000Y-132712000D03*
X75016000Y-72133000D03*
X70952000Y-53083000D03*
X75016000Y-53083000D03*
X70952000Y-91183000D03*
M02*
