%TF.GenerationSoftware,KiCad,Pcbnew,5.0.0+dfsg1-2*%
%TF.CreationDate,2019-02-10T19:22:37+01:00*%
%TF.ProjectId,yatara-puno-mx-5,7961746172612D70756E6F2D6D782D35,0.2*%
%TF.SameCoordinates,Original*%
%TF.FileFunction,Legend,Top*%
%TF.FilePolarity,Positive*%
%FSLAX46Y46*%
G04 Gerber Fmt 4.6, Leading zero omitted, Abs format (unit mm)*
G04 Created by KiCad (PCBNEW 5.0.0+dfsg1-2) date Sun Feb 10 19:22:37 2019*
%MOMM*%
%LPD*%
G01*
G04 APERTURE LIST*
%ADD10C,0.100000*%
%ADD11C,0.200000*%
%ADD12C,0.150000*%
%ADD13C,0.120000*%
%ADD14C,0.125000*%
G04 APERTURE END LIST*
D10*
X83250000Y-33525000D02*
X82890000Y-33525000D01*
X83250000Y-38287500D02*
X82890000Y-38287500D01*
X83250000Y-43050000D02*
X82890000Y-43050000D01*
X83250000Y-47812500D02*
X82890000Y-47812500D01*
X83250000Y-52575000D02*
X82890000Y-52575000D01*
X83250000Y-57337500D02*
X82890000Y-57337500D01*
X83250000Y-62100000D02*
X82890000Y-62100000D01*
X83250000Y-66862500D02*
X82890000Y-66862500D01*
X83250000Y-71625000D02*
X82890000Y-71625000D01*
X83250000Y-76387500D02*
X82890000Y-76387500D01*
X83250000Y-81150000D02*
X82890000Y-81150000D01*
X83250000Y-85912500D02*
X82890000Y-85912500D01*
X83250000Y-90675000D02*
X82890000Y-90675000D01*
X83250000Y-95437500D02*
X82890000Y-95437500D01*
X83250000Y-100200000D02*
X82890000Y-100200000D01*
X83250000Y-104962500D02*
X82890000Y-104962500D01*
X83250000Y-109725000D02*
X82890000Y-109725000D01*
X83250000Y-114487500D02*
X82890000Y-114487500D01*
X83250000Y-119250000D02*
X82890000Y-119250000D01*
X83250000Y-124012500D02*
X82890000Y-124012500D01*
X83250000Y-128775000D02*
X82890000Y-128775000D01*
X64750000Y-33525000D02*
X65110000Y-33525000D01*
X64750000Y-38287500D02*
X65110000Y-38287500D01*
X64750000Y-43050000D02*
X65110000Y-43050000D01*
X64750000Y-47812500D02*
X65110000Y-47812500D01*
X64750000Y-52575000D02*
X65110000Y-52575000D01*
X64750000Y-57337500D02*
X65110000Y-57337500D01*
X64750000Y-62100000D02*
X65110000Y-62100000D01*
X64750000Y-66862500D02*
X65110000Y-66862500D01*
X64750000Y-71625000D02*
X65110000Y-71625000D01*
X64750000Y-76387500D02*
X65110000Y-76387500D01*
X64750000Y-81150000D02*
X65110000Y-81150000D01*
X64750000Y-85912500D02*
X65110000Y-85912500D01*
X64750000Y-90675000D02*
X65110000Y-90675000D01*
X64750000Y-95437500D02*
X65110000Y-95437500D01*
X64750000Y-100200000D02*
X65110000Y-100200000D01*
X64750000Y-104962500D02*
X65110000Y-104962500D01*
X64750000Y-109725000D02*
X65110000Y-109725000D01*
X64750000Y-114487500D02*
X65110000Y-114487500D01*
X64750000Y-119250000D02*
X65110000Y-119250000D01*
X64750000Y-124012500D02*
X65110000Y-124012500D01*
X64750000Y-128775000D02*
X65110000Y-128775000D01*
D11*
X78274428Y-47177857D02*
X79774428Y-47177857D01*
X78703000Y-47677857D01*
X79774428Y-48177857D01*
X78274428Y-48177857D01*
X79774428Y-48749285D02*
X78274428Y-49749285D01*
X79774428Y-49749285D02*
X78274428Y-48749285D01*
X78845857Y-50320714D02*
X78845857Y-51463571D01*
X79774428Y-52892142D02*
X79774428Y-52177857D01*
X79060142Y-52106428D01*
X79131571Y-52177857D01*
X79203000Y-52320714D01*
X79203000Y-52677857D01*
X79131571Y-52820714D01*
X79060142Y-52892142D01*
X78917285Y-52963571D01*
X78560142Y-52963571D01*
X78417285Y-52892142D01*
X78345857Y-52820714D01*
X78274428Y-52677857D01*
X78274428Y-52320714D01*
X78345857Y-52177857D01*
X78417285Y-52106428D01*
X81687428Y-83206428D02*
X80687428Y-83563571D01*
X81687428Y-83920714D02*
X80687428Y-83563571D01*
X80330285Y-83420714D01*
X80258857Y-83349285D01*
X80187428Y-83206428D01*
X80687428Y-85135000D02*
X81473142Y-85135000D01*
X81616000Y-85063571D01*
X81687428Y-84920714D01*
X81687428Y-84635000D01*
X81616000Y-84492142D01*
X80758857Y-85135000D02*
X80687428Y-84992142D01*
X80687428Y-84635000D01*
X80758857Y-84492142D01*
X80901714Y-84420714D01*
X81044571Y-84420714D01*
X81187428Y-84492142D01*
X81258857Y-84635000D01*
X81258857Y-84992142D01*
X81330285Y-85135000D01*
X81687428Y-85635000D02*
X81687428Y-86206428D01*
X82187428Y-85849285D02*
X80901714Y-85849285D01*
X80758857Y-85920714D01*
X80687428Y-86063571D01*
X80687428Y-86206428D01*
X80687428Y-87349285D02*
X81473142Y-87349285D01*
X81616000Y-87277857D01*
X81687428Y-87135000D01*
X81687428Y-86849285D01*
X81616000Y-86706428D01*
X80758857Y-87349285D02*
X80687428Y-87206428D01*
X80687428Y-86849285D01*
X80758857Y-86706428D01*
X80901714Y-86635000D01*
X81044571Y-86635000D01*
X81187428Y-86706428D01*
X81258857Y-86849285D01*
X81258857Y-87206428D01*
X81330285Y-87349285D01*
X80687428Y-88063571D02*
X81687428Y-88063571D01*
X81401714Y-88063571D02*
X81544571Y-88135000D01*
X81616000Y-88206428D01*
X81687428Y-88349285D01*
X81687428Y-88492142D01*
X80687428Y-89635000D02*
X81473142Y-89635000D01*
X81616000Y-89563571D01*
X81687428Y-89420714D01*
X81687428Y-89135000D01*
X81616000Y-88992142D01*
X80758857Y-89635000D02*
X80687428Y-89492142D01*
X80687428Y-89135000D01*
X80758857Y-88992142D01*
X80901714Y-88920714D01*
X81044571Y-88920714D01*
X81187428Y-88992142D01*
X81258857Y-89135000D01*
X81258857Y-89492142D01*
X81330285Y-89635000D01*
X80830285Y-90349285D02*
X80758857Y-90420714D01*
X80687428Y-90349285D01*
X80758857Y-90277857D01*
X80830285Y-90349285D01*
X80687428Y-90349285D01*
X80758857Y-91706428D02*
X80687428Y-91563571D01*
X80687428Y-91277857D01*
X80758857Y-91135000D01*
X80830285Y-91063571D01*
X80973142Y-90992142D01*
X81401714Y-90992142D01*
X81544571Y-91063571D01*
X81616000Y-91135000D01*
X81687428Y-91277857D01*
X81687428Y-91563571D01*
X81616000Y-91706428D01*
X80758857Y-92992142D02*
X80687428Y-92849285D01*
X80687428Y-92563571D01*
X80758857Y-92420714D01*
X80830285Y-92349285D01*
X80973142Y-92277857D01*
X81401714Y-92277857D01*
X81544571Y-92349285D01*
X81616000Y-92420714D01*
X81687428Y-92563571D01*
X81687428Y-92849285D01*
X81616000Y-92992142D01*
D12*
X77240857Y-47213071D02*
X76640857Y-47427357D01*
X77240857Y-47641642D01*
X77540857Y-48155928D02*
X77540857Y-48241642D01*
X77498000Y-48327357D01*
X77455142Y-48370214D01*
X77369428Y-48413071D01*
X77198000Y-48455928D01*
X76983714Y-48455928D01*
X76812285Y-48413071D01*
X76726571Y-48370214D01*
X76683714Y-48327357D01*
X76640857Y-48241642D01*
X76640857Y-48155928D01*
X76683714Y-48070214D01*
X76726571Y-48027357D01*
X76812285Y-47984500D01*
X76983714Y-47941642D01*
X77198000Y-47941642D01*
X77369428Y-47984500D01*
X77455142Y-48027357D01*
X77498000Y-48070214D01*
X77540857Y-48155928D01*
X76726571Y-48841642D02*
X76683714Y-48884500D01*
X76640857Y-48841642D01*
X76683714Y-48798785D01*
X76726571Y-48841642D01*
X76640857Y-48841642D01*
X77455142Y-49227357D02*
X77498000Y-49270214D01*
X77540857Y-49355928D01*
X77540857Y-49570214D01*
X77498000Y-49655928D01*
X77455142Y-49698785D01*
X77369428Y-49741642D01*
X77283714Y-49741642D01*
X77155142Y-49698785D01*
X76640857Y-49184500D01*
X76640857Y-49741642D01*
D11*
X81401714Y-43749285D02*
X80687428Y-43749285D01*
X82187428Y-43249285D02*
X81401714Y-43749285D01*
X82187428Y-44249285D01*
X80687428Y-45392142D02*
X81473142Y-45392142D01*
X81616000Y-45320714D01*
X81687428Y-45177857D01*
X81687428Y-44892142D01*
X81616000Y-44749285D01*
X80758857Y-45392142D02*
X80687428Y-45249285D01*
X80687428Y-44892142D01*
X80758857Y-44749285D01*
X80901714Y-44677857D01*
X81044571Y-44677857D01*
X81187428Y-44749285D01*
X81258857Y-44892142D01*
X81258857Y-45249285D01*
X81330285Y-45392142D01*
X81687428Y-45892142D02*
X81687428Y-46463571D01*
X82187428Y-46106428D02*
X80901714Y-46106428D01*
X80758857Y-46177857D01*
X80687428Y-46320714D01*
X80687428Y-46463571D01*
X80687428Y-47606428D02*
X81473142Y-47606428D01*
X81616000Y-47535000D01*
X81687428Y-47392142D01*
X81687428Y-47106428D01*
X81616000Y-46963571D01*
X80758857Y-47606428D02*
X80687428Y-47463571D01*
X80687428Y-47106428D01*
X80758857Y-46963571D01*
X80901714Y-46892142D01*
X81044571Y-46892142D01*
X81187428Y-46963571D01*
X81258857Y-47106428D01*
X81258857Y-47463571D01*
X81330285Y-47606428D01*
X80687428Y-48320714D02*
X81687428Y-48320714D01*
X81401714Y-48320714D02*
X81544571Y-48392142D01*
X81616000Y-48463571D01*
X81687428Y-48606428D01*
X81687428Y-48749285D01*
X80687428Y-49892142D02*
X81473142Y-49892142D01*
X81616000Y-49820714D01*
X81687428Y-49677857D01*
X81687428Y-49392142D01*
X81616000Y-49249285D01*
X80758857Y-49892142D02*
X80687428Y-49749285D01*
X80687428Y-49392142D01*
X80758857Y-49249285D01*
X80901714Y-49177857D01*
X81044571Y-49177857D01*
X81187428Y-49249285D01*
X81258857Y-49392142D01*
X81258857Y-49749285D01*
X81330285Y-49892142D01*
X80687428Y-51749285D02*
X82187428Y-51749285D01*
X82187428Y-52320714D01*
X82116000Y-52463571D01*
X82044571Y-52535000D01*
X81901714Y-52606428D01*
X81687428Y-52606428D01*
X81544571Y-52535000D01*
X81473142Y-52463571D01*
X81401714Y-52320714D01*
X81401714Y-51749285D01*
X81687428Y-53892142D02*
X80687428Y-53892142D01*
X81687428Y-53249285D02*
X80901714Y-53249285D01*
X80758857Y-53320714D01*
X80687428Y-53463571D01*
X80687428Y-53677857D01*
X80758857Y-53820714D01*
X80830285Y-53892142D01*
X81687428Y-54606428D02*
X80687428Y-54606428D01*
X81544571Y-54606428D02*
X81616000Y-54677857D01*
X81687428Y-54820714D01*
X81687428Y-55035000D01*
X81616000Y-55177857D01*
X81473142Y-55249285D01*
X80687428Y-55249285D01*
X80687428Y-56177857D02*
X80758857Y-56035000D01*
X80830285Y-55963571D01*
X80973142Y-55892142D01*
X81401714Y-55892142D01*
X81544571Y-55963571D01*
X81616000Y-56035000D01*
X81687428Y-56177857D01*
X81687428Y-56392142D01*
X81616000Y-56535000D01*
X81544571Y-56606428D01*
X81401714Y-56677857D01*
X80973142Y-56677857D01*
X80830285Y-56606428D01*
X80758857Y-56535000D01*
X80687428Y-56392142D01*
X80687428Y-56177857D01*
D13*
X71170000Y-47098000D02*
X67270000Y-47098000D01*
X71170000Y-45098000D02*
X67270000Y-45098000D01*
X71170000Y-47098000D02*
X71170000Y-45098000D01*
X71170000Y-66148000D02*
X67270000Y-66148000D01*
X71170000Y-64148000D02*
X67270000Y-64148000D01*
X71170000Y-66148000D02*
X71170000Y-64148000D01*
X71170000Y-85198000D02*
X67270000Y-85198000D01*
X71170000Y-83198000D02*
X67270000Y-83198000D01*
X71170000Y-85198000D02*
X71170000Y-83198000D01*
X71170000Y-104248000D02*
X67270000Y-104248000D01*
X71170000Y-102248000D02*
X67270000Y-102248000D01*
X71170000Y-104248000D02*
X71170000Y-102248000D01*
X71170000Y-123298000D02*
X67270000Y-123298000D01*
X71170000Y-121298000D02*
X67270000Y-121298000D01*
X71170000Y-123298000D02*
X71170000Y-121298000D01*
X72910000Y-33398000D02*
G75*
G03X72910000Y-33398000I-1450000J0D01*
G01*
X68846000Y-33398000D02*
G75*
G03X68846000Y-33398000I-1450000J0D01*
G01*
X81038000Y-33398000D02*
G75*
G03X81038000Y-33398000I-1450000J0D01*
G01*
X76974000Y-33398000D02*
G75*
G03X76974000Y-33398000I-1450000J0D01*
G01*
X72402000Y-110233000D02*
G75*
G03X72402000Y-110233000I-1450000J0D01*
G01*
X80784000Y-132712000D02*
G75*
G03X80784000Y-132712000I-1450000J0D01*
G01*
X76466000Y-110233000D02*
G75*
G03X76466000Y-110233000I-1450000J0D01*
G01*
X70116000Y-29588000D02*
G75*
G03X70116000Y-29588000I-1450000J0D01*
G01*
D12*
X78064000Y-112646000D02*
X69174000Y-112646000D01*
X69174000Y-112646000D02*
X69174000Y-116456000D01*
X80096000Y-118234000D02*
X80096000Y-114678000D01*
X78064000Y-112646000D02*
G75*
G02X80096000Y-114678000I0J-2032000D01*
G01*
X80096000Y-118234000D02*
X76286000Y-118234000D01*
X74127000Y-116710000D02*
X69428000Y-116710000D01*
X69428000Y-116710000D02*
G75*
G02X69174000Y-116456000I0J254000D01*
G01*
X76024035Y-118013796D02*
G75*
G03X74127000Y-116710000I-1897035J-728204D01*
G01*
X76048871Y-118071025D02*
G75*
G03X76286000Y-118234000I237129J91025D01*
G01*
X76048871Y-41871025D02*
G75*
G03X76286000Y-42034000I237129J91025D01*
G01*
X76024035Y-41813796D02*
G75*
G03X74127000Y-40510000I-1897035J-728204D01*
G01*
X69428000Y-40510000D02*
G75*
G02X69174000Y-40256000I0J254000D01*
G01*
X74127000Y-40510000D02*
X69428000Y-40510000D01*
X80096000Y-42034000D02*
X76286000Y-42034000D01*
X78064000Y-36446000D02*
G75*
G02X80096000Y-38478000I0J-2032000D01*
G01*
X80096000Y-42034000D02*
X80096000Y-38478000D01*
X69174000Y-36446000D02*
X69174000Y-40256000D01*
X78064000Y-36446000D02*
X69174000Y-36446000D01*
X78064000Y-93596000D02*
X69174000Y-93596000D01*
X69174000Y-93596000D02*
X69174000Y-97406000D01*
X80096000Y-99184000D02*
X80096000Y-95628000D01*
X78064000Y-93596000D02*
G75*
G02X80096000Y-95628000I0J-2032000D01*
G01*
X80096000Y-99184000D02*
X76286000Y-99184000D01*
X74127000Y-97660000D02*
X69428000Y-97660000D01*
X69428000Y-97660000D02*
G75*
G02X69174000Y-97406000I0J254000D01*
G01*
X76024035Y-98963796D02*
G75*
G03X74127000Y-97660000I-1897035J-728204D01*
G01*
X76048871Y-99021025D02*
G75*
G03X76286000Y-99184000I237129J91025D01*
G01*
X76048871Y-79971025D02*
G75*
G03X76286000Y-80134000I237129J91025D01*
G01*
X76024035Y-79913796D02*
G75*
G03X74127000Y-78610000I-1897035J-728204D01*
G01*
X69428000Y-78610000D02*
G75*
G02X69174000Y-78356000I0J254000D01*
G01*
X74127000Y-78610000D02*
X69428000Y-78610000D01*
X80096000Y-80134000D02*
X76286000Y-80134000D01*
X78064000Y-74546000D02*
G75*
G02X80096000Y-76578000I0J-2032000D01*
G01*
X80096000Y-80134000D02*
X80096000Y-76578000D01*
X69174000Y-74546000D02*
X69174000Y-78356000D01*
X78064000Y-74546000D02*
X69174000Y-74546000D01*
X78064000Y-55496000D02*
X69174000Y-55496000D01*
X69174000Y-55496000D02*
X69174000Y-59306000D01*
X80096000Y-61084000D02*
X80096000Y-57528000D01*
X78064000Y-55496000D02*
G75*
G02X80096000Y-57528000I0J-2032000D01*
G01*
X80096000Y-61084000D02*
X76286000Y-61084000D01*
X74127000Y-59560000D02*
X69428000Y-59560000D01*
X69428000Y-59560000D02*
G75*
G02X69174000Y-59306000I0J254000D01*
G01*
X76024035Y-60863796D02*
G75*
G03X74127000Y-59560000I-1897035J-728204D01*
G01*
X76048871Y-60921025D02*
G75*
G03X76286000Y-61084000I237129J91025D01*
G01*
D13*
X82052000Y-128902000D02*
G75*
G03X82052000Y-128902000I-1450000J0D01*
G01*
X77988000Y-128902000D02*
G75*
G03X77988000Y-128902000I-1450000J0D01*
G01*
X73926000Y-128902000D02*
G75*
G03X73926000Y-128902000I-1450000J0D01*
G01*
X69860000Y-128902000D02*
G75*
G03X69860000Y-128902000I-1450000J0D01*
G01*
X80784000Y-29588000D02*
G75*
G03X80784000Y-29588000I-1450000J0D01*
G01*
X70114000Y-132712000D02*
G75*
G03X70114000Y-132712000I-1450000J0D01*
G01*
X76466000Y-72133000D02*
G75*
G03X76466000Y-72133000I-1450000J0D01*
G01*
X72402000Y-53083000D02*
G75*
G03X72402000Y-53083000I-1450000J0D01*
G01*
X76466000Y-53083000D02*
G75*
G03X76466000Y-53083000I-1450000J0D01*
G01*
X72402000Y-91183000D02*
G75*
G03X72402000Y-91183000I-1450000J0D01*
G01*
D11*
X80323000Y-70355000D02*
G75*
G03X80323000Y-70355000I-100000J0D01*
G01*
X81593000Y-69085000D02*
G75*
G03X81593000Y-69085000I-100000J0D01*
G01*
X79053000Y-67815000D02*
G75*
G03X79053000Y-67815000I-100000J0D01*
G01*
D12*
X82128000Y-69720000D02*
X78318000Y-69720000D01*
X78318000Y-68450000D02*
X82128000Y-68450000D01*
X79588000Y-67180000D02*
X79588000Y-70990000D01*
X80858000Y-67180000D02*
X80858000Y-70990000D01*
X82128000Y-70990000D02*
X82128000Y-67180000D01*
X78318000Y-70990000D02*
X82128000Y-70990000D01*
X78318000Y-67180000D02*
X78318000Y-70990000D01*
X82128000Y-67180000D02*
X78318000Y-67180000D01*
G36*
X79588000Y-69720000D02*
X78318000Y-69720000D01*
X78318000Y-70990000D01*
X79588000Y-70990000D01*
X79588000Y-69720000D01*
G37*
X79588000Y-69720000D02*
X78318000Y-69720000D01*
X78318000Y-70990000D01*
X79588000Y-70990000D01*
X79588000Y-69720000D01*
G36*
X80858000Y-68450000D02*
X79588000Y-68450000D01*
X79588000Y-69720000D01*
X80858000Y-69720000D01*
X80858000Y-68450000D01*
G37*
X80858000Y-68450000D02*
X79588000Y-68450000D01*
X79588000Y-69720000D01*
X80858000Y-69720000D01*
X80858000Y-68450000D01*
G36*
X82128000Y-67180000D02*
X80858000Y-67180000D01*
X80858000Y-68450000D01*
X82128000Y-68450000D01*
X82128000Y-67180000D01*
G37*
X82128000Y-67180000D02*
X80858000Y-67180000D01*
X80858000Y-68450000D01*
X82128000Y-68450000D01*
X82128000Y-67180000D01*
X68181904Y-48550380D02*
X68181904Y-47550380D01*
X68420000Y-47550380D01*
X68562857Y-47598000D01*
X68658095Y-47693238D01*
X68705714Y-47788476D01*
X68753333Y-47978952D01*
X68753333Y-48121809D01*
X68705714Y-48312285D01*
X68658095Y-48407523D01*
X68562857Y-48502761D01*
X68420000Y-48550380D01*
X68181904Y-48550380D01*
X69705714Y-48550380D02*
X69134285Y-48550380D01*
X69420000Y-48550380D02*
X69420000Y-47550380D01*
X69324761Y-47693238D01*
X69229523Y-47788476D01*
X69134285Y-47836095D01*
X68181904Y-67600380D02*
X68181904Y-66600380D01*
X68420000Y-66600380D01*
X68562857Y-66648000D01*
X68658095Y-66743238D01*
X68705714Y-66838476D01*
X68753333Y-67028952D01*
X68753333Y-67171809D01*
X68705714Y-67362285D01*
X68658095Y-67457523D01*
X68562857Y-67552761D01*
X68420000Y-67600380D01*
X68181904Y-67600380D01*
X69134285Y-66695619D02*
X69181904Y-66648000D01*
X69277142Y-66600380D01*
X69515238Y-66600380D01*
X69610476Y-66648000D01*
X69658095Y-66695619D01*
X69705714Y-66790857D01*
X69705714Y-66886095D01*
X69658095Y-67028952D01*
X69086666Y-67600380D01*
X69705714Y-67600380D01*
X68181904Y-86650380D02*
X68181904Y-85650380D01*
X68420000Y-85650380D01*
X68562857Y-85698000D01*
X68658095Y-85793238D01*
X68705714Y-85888476D01*
X68753333Y-86078952D01*
X68753333Y-86221809D01*
X68705714Y-86412285D01*
X68658095Y-86507523D01*
X68562857Y-86602761D01*
X68420000Y-86650380D01*
X68181904Y-86650380D01*
X69086666Y-85650380D02*
X69705714Y-85650380D01*
X69372380Y-86031333D01*
X69515238Y-86031333D01*
X69610476Y-86078952D01*
X69658095Y-86126571D01*
X69705714Y-86221809D01*
X69705714Y-86459904D01*
X69658095Y-86555142D01*
X69610476Y-86602761D01*
X69515238Y-86650380D01*
X69229523Y-86650380D01*
X69134285Y-86602761D01*
X69086666Y-86555142D01*
X68181904Y-105700380D02*
X68181904Y-104700380D01*
X68420000Y-104700380D01*
X68562857Y-104748000D01*
X68658095Y-104843238D01*
X68705714Y-104938476D01*
X68753333Y-105128952D01*
X68753333Y-105271809D01*
X68705714Y-105462285D01*
X68658095Y-105557523D01*
X68562857Y-105652761D01*
X68420000Y-105700380D01*
X68181904Y-105700380D01*
X69610476Y-105033714D02*
X69610476Y-105700380D01*
X69372380Y-104652761D02*
X69134285Y-105367047D01*
X69753333Y-105367047D01*
X68181904Y-124750380D02*
X68181904Y-123750380D01*
X68420000Y-123750380D01*
X68562857Y-123798000D01*
X68658095Y-123893238D01*
X68705714Y-123988476D01*
X68753333Y-124178952D01*
X68753333Y-124321809D01*
X68705714Y-124512285D01*
X68658095Y-124607523D01*
X68562857Y-124702761D01*
X68420000Y-124750380D01*
X68181904Y-124750380D01*
X69658095Y-123750380D02*
X69181904Y-123750380D01*
X69134285Y-124226571D01*
X69181904Y-124178952D01*
X69277142Y-124131333D01*
X69515238Y-124131333D01*
X69610476Y-124178952D01*
X69658095Y-124226571D01*
X69705714Y-124321809D01*
X69705714Y-124559904D01*
X69658095Y-124655142D01*
X69610476Y-124702761D01*
X69515238Y-124750380D01*
X69277142Y-124750380D01*
X69181904Y-124702761D01*
X69134285Y-124655142D01*
D14*
X72935582Y-34607934D02*
X72910292Y-34318404D01*
X72688146Y-34465077D02*
X72938146Y-34032064D01*
X73103103Y-34127302D01*
X73132438Y-34171731D01*
X73141153Y-34204256D01*
X73137963Y-34257400D01*
X73102248Y-34319259D01*
X73057819Y-34348593D01*
X73025295Y-34357308D01*
X72972151Y-34354118D01*
X72807194Y-34258880D01*
X73329919Y-34258254D02*
X73597975Y-34413016D01*
X73358399Y-34494640D01*
X73420258Y-34530355D01*
X73449593Y-34574784D01*
X73458308Y-34607308D01*
X73455118Y-34660452D01*
X73395594Y-34763550D01*
X73351165Y-34792885D01*
X73318640Y-34801600D01*
X73265496Y-34798410D01*
X73141778Y-34726981D01*
X73112444Y-34682552D01*
X73103729Y-34650028D01*
X73406644Y-34934887D02*
X73736558Y-35125364D01*
X74090282Y-35274600D02*
X73842846Y-35131743D01*
X73966564Y-35203172D02*
X74216564Y-34770159D01*
X74139611Y-34808209D01*
X74074562Y-34825638D01*
X74021418Y-34822449D01*
X68871582Y-34607934D02*
X68846292Y-34318404D01*
X68624146Y-34465077D02*
X68874146Y-34032064D01*
X69039103Y-34127302D01*
X69068438Y-34171731D01*
X69077153Y-34204256D01*
X69073963Y-34257400D01*
X69038248Y-34319259D01*
X68993819Y-34348593D01*
X68961295Y-34357308D01*
X68908151Y-34354118D01*
X68743194Y-34258880D01*
X69409402Y-34533544D02*
X69242735Y-34822220D01*
X69401542Y-34309063D02*
X69119872Y-34558834D01*
X69387928Y-34713596D01*
X69342644Y-34934887D02*
X69672558Y-35125364D01*
X70026282Y-35274600D02*
X69778846Y-35131743D01*
X69902564Y-35203172D02*
X70152564Y-34770159D01*
X70075611Y-34808209D01*
X70010562Y-34825638D01*
X69957418Y-34822449D01*
X81063582Y-34607934D02*
X81038292Y-34318404D01*
X80816146Y-34465077D02*
X81066146Y-34032064D01*
X81231103Y-34127302D01*
X81260438Y-34171731D01*
X81269153Y-34204256D01*
X81265963Y-34257400D01*
X81230248Y-34319259D01*
X81185819Y-34348593D01*
X81153295Y-34357308D01*
X81100151Y-34354118D01*
X80935194Y-34258880D01*
X81475975Y-34846029D02*
X81228539Y-34703172D01*
X81352257Y-34774600D02*
X81602257Y-34341588D01*
X81525303Y-34379637D01*
X81460254Y-34397067D01*
X81407110Y-34393877D01*
X81534644Y-34934887D02*
X81864558Y-35125364D01*
X82218282Y-35274600D02*
X81970846Y-35131743D01*
X82094564Y-35203172D02*
X82344564Y-34770159D01*
X82267611Y-34808209D01*
X82202562Y-34825638D01*
X82149418Y-34822449D01*
X76999582Y-34607934D02*
X76974292Y-34318404D01*
X76752146Y-34465077D02*
X77002146Y-34032064D01*
X77167103Y-34127302D01*
X77196438Y-34171731D01*
X77205153Y-34204256D01*
X77201963Y-34257400D01*
X77166248Y-34319259D01*
X77121819Y-34348593D01*
X77089295Y-34357308D01*
X77036151Y-34354118D01*
X76871194Y-34258880D01*
X77390729Y-34311399D02*
X77423254Y-34302684D01*
X77476398Y-34305873D01*
X77579496Y-34365397D01*
X77608831Y-34409826D01*
X77617546Y-34442351D01*
X77614356Y-34495495D01*
X77590546Y-34536734D01*
X77534212Y-34586688D01*
X77143919Y-34691267D01*
X77411975Y-34846029D01*
X77470644Y-34934887D02*
X77800558Y-35125364D01*
X78154282Y-35274600D02*
X77906846Y-35131743D01*
X78030564Y-35203172D02*
X78280564Y-34770159D01*
X78203611Y-34808209D01*
X78138562Y-34825638D01*
X78085418Y-34822449D01*
X72427582Y-111442934D02*
X72402292Y-111153404D01*
X72180146Y-111300077D02*
X72430146Y-110867064D01*
X72595103Y-110962302D01*
X72624438Y-111006731D01*
X72633153Y-111039256D01*
X72629963Y-111092400D01*
X72594248Y-111154259D01*
X72549819Y-111183593D01*
X72517295Y-111192308D01*
X72464151Y-111189118D01*
X72299194Y-111093880D01*
X72965402Y-111368544D02*
X72798735Y-111657220D01*
X72957542Y-111144063D02*
X72675872Y-111393834D01*
X72943928Y-111548596D01*
X72898644Y-111769887D02*
X73228558Y-111960364D01*
X73564227Y-111521826D02*
X73832282Y-111676588D01*
X73592707Y-111758212D01*
X73654566Y-111793926D01*
X73683900Y-111838355D01*
X73692615Y-111870880D01*
X73689425Y-111924024D01*
X73629901Y-112027122D01*
X73585472Y-112056456D01*
X73552948Y-112065171D01*
X73499804Y-112061981D01*
X73376086Y-111990553D01*
X73346751Y-111946124D01*
X73338036Y-111913599D01*
X77858417Y-131502065D02*
X77883707Y-131791595D01*
X78105853Y-131644922D02*
X77855853Y-132077935D01*
X77690896Y-131982697D01*
X77661561Y-131938268D01*
X77652846Y-131905743D01*
X77656036Y-131852599D01*
X77691751Y-131790740D01*
X77736180Y-131761406D01*
X77768704Y-131752691D01*
X77821848Y-131755881D01*
X77986805Y-131851119D01*
X77216644Y-131708887D02*
X77422840Y-131827935D01*
X77562508Y-131633643D01*
X77529983Y-131642358D01*
X77476839Y-131639168D01*
X77373741Y-131579644D01*
X77344406Y-131535215D01*
X77335691Y-131502691D01*
X77338881Y-131449547D01*
X77398405Y-131346449D01*
X77442834Y-131317114D01*
X77475359Y-131308399D01*
X77528503Y-131311589D01*
X77631601Y-131371113D01*
X77660936Y-131415542D01*
X77669651Y-131448066D01*
X77387355Y-131175112D02*
X77057441Y-130984635D01*
X76724962Y-131370029D02*
X76692438Y-131378744D01*
X76639294Y-131375554D01*
X76536195Y-131316030D01*
X76506861Y-131271601D01*
X76498146Y-131239077D01*
X76501336Y-131185933D01*
X76525145Y-131144693D01*
X76581479Y-131094739D01*
X76971772Y-130990160D01*
X76703717Y-130835399D01*
X76491582Y-111442934D02*
X76466292Y-111153404D01*
X76244146Y-111300077D02*
X76494146Y-110867064D01*
X76659103Y-110962302D01*
X76688438Y-111006731D01*
X76697153Y-111039256D01*
X76693963Y-111092400D01*
X76658248Y-111154259D01*
X76613819Y-111183593D01*
X76581295Y-111192308D01*
X76528151Y-111189118D01*
X76363194Y-111093880D01*
X77133355Y-111236112D02*
X76927159Y-111117064D01*
X76787491Y-111311356D01*
X76820016Y-111302641D01*
X76873160Y-111305831D01*
X76976258Y-111365355D01*
X77005593Y-111409784D01*
X77014308Y-111442308D01*
X77011118Y-111495452D01*
X76951594Y-111598550D01*
X76907165Y-111627885D01*
X76874640Y-111636600D01*
X76821496Y-111633410D01*
X76718398Y-111573886D01*
X76689063Y-111529457D01*
X76680348Y-111496933D01*
X76962644Y-111769887D02*
X77292558Y-111960364D01*
X77628227Y-111521826D02*
X77896282Y-111676588D01*
X77656707Y-111758212D01*
X77718566Y-111793926D01*
X77747900Y-111838355D01*
X77756615Y-111870880D01*
X77753425Y-111924024D01*
X77693901Y-112027122D01*
X77649472Y-112056456D01*
X77616948Y-112065171D01*
X77563804Y-112061981D01*
X77440086Y-111990553D01*
X77410751Y-111946124D01*
X77402036Y-111913599D01*
X70141582Y-30797934D02*
X70116292Y-30508404D01*
X69894146Y-30655077D02*
X70144146Y-30222064D01*
X70309103Y-30317302D01*
X70338438Y-30361731D01*
X70347153Y-30394256D01*
X70343963Y-30447400D01*
X70308248Y-30509259D01*
X70263819Y-30538593D01*
X70231295Y-30547308D01*
X70178151Y-30544118D01*
X70013194Y-30448880D01*
X70783355Y-30591112D02*
X70577159Y-30472064D01*
X70437491Y-30666356D01*
X70470016Y-30657641D01*
X70523160Y-30660831D01*
X70626258Y-30720355D01*
X70655593Y-30764784D01*
X70664308Y-30797308D01*
X70661118Y-30850452D01*
X70601594Y-30953550D01*
X70557165Y-30982885D01*
X70524640Y-30991600D01*
X70471496Y-30988410D01*
X70368398Y-30928886D01*
X70339063Y-30884457D01*
X70330348Y-30851933D01*
X70612644Y-31124887D02*
X70942558Y-31315364D01*
X71296282Y-31464600D02*
X71048846Y-31321743D01*
X71172564Y-31393172D02*
X71422564Y-30960159D01*
X71345611Y-30998209D01*
X71280562Y-31015638D01*
X71227418Y-31012449D01*
D12*
X73261904Y-122752380D02*
X73261904Y-121752380D01*
X73833333Y-122752380D02*
X73404761Y-122180952D01*
X73833333Y-121752380D02*
X73261904Y-122323809D01*
X74738095Y-121752380D02*
X74261904Y-121752380D01*
X74214285Y-122228571D01*
X74261904Y-122180952D01*
X74357142Y-122133333D01*
X74595238Y-122133333D01*
X74690476Y-122180952D01*
X74738095Y-122228571D01*
X74785714Y-122323809D01*
X74785714Y-122561904D01*
X74738095Y-122657142D01*
X74690476Y-122704761D01*
X74595238Y-122752380D01*
X74357142Y-122752380D01*
X74261904Y-122704761D01*
X74214285Y-122657142D01*
X73261904Y-46552380D02*
X73261904Y-45552380D01*
X73833333Y-46552380D02*
X73404761Y-45980952D01*
X73833333Y-45552380D02*
X73261904Y-46123809D01*
X74785714Y-46552380D02*
X74214285Y-46552380D01*
X74500000Y-46552380D02*
X74500000Y-45552380D01*
X74404761Y-45695238D01*
X74309523Y-45790476D01*
X74214285Y-45838095D01*
X73261904Y-103702380D02*
X73261904Y-102702380D01*
X73833333Y-103702380D02*
X73404761Y-103130952D01*
X73833333Y-102702380D02*
X73261904Y-103273809D01*
X74690476Y-103035714D02*
X74690476Y-103702380D01*
X74452380Y-102654761D02*
X74214285Y-103369047D01*
X74833333Y-103369047D01*
X73261904Y-84652380D02*
X73261904Y-83652380D01*
X73833333Y-84652380D02*
X73404761Y-84080952D01*
X73833333Y-83652380D02*
X73261904Y-84223809D01*
X74166666Y-83652380D02*
X74785714Y-83652380D01*
X74452380Y-84033333D01*
X74595238Y-84033333D01*
X74690476Y-84080952D01*
X74738095Y-84128571D01*
X74785714Y-84223809D01*
X74785714Y-84461904D01*
X74738095Y-84557142D01*
X74690476Y-84604761D01*
X74595238Y-84652380D01*
X74309523Y-84652380D01*
X74214285Y-84604761D01*
X74166666Y-84557142D01*
X73261904Y-65602380D02*
X73261904Y-64602380D01*
X73833333Y-65602380D02*
X73404761Y-65030952D01*
X73833333Y-64602380D02*
X73261904Y-65173809D01*
X74214285Y-64697619D02*
X74261904Y-64650000D01*
X74357142Y-64602380D01*
X74595238Y-64602380D01*
X74690476Y-64650000D01*
X74738095Y-64697619D01*
X74785714Y-64792857D01*
X74785714Y-64888095D01*
X74738095Y-65030952D01*
X74166666Y-65602380D01*
X74785714Y-65602380D01*
D14*
X79126417Y-127692065D02*
X79151707Y-127981595D01*
X79373853Y-127834922D02*
X79123853Y-128267935D01*
X78958896Y-128172697D01*
X78929561Y-128128268D01*
X78920846Y-128095743D01*
X78924036Y-128042599D01*
X78959751Y-127980740D01*
X79004180Y-127951406D01*
X79036704Y-127942691D01*
X79089848Y-127945881D01*
X79254805Y-128041119D01*
X78588597Y-127766455D02*
X78755264Y-127477779D01*
X78596457Y-127990936D02*
X78878127Y-127741165D01*
X78610071Y-127586403D01*
X78655355Y-127365112D02*
X78325441Y-127174635D01*
X77992962Y-127560029D02*
X77960438Y-127568744D01*
X77907294Y-127565554D01*
X77804195Y-127506030D01*
X77774861Y-127461601D01*
X77766146Y-127429077D01*
X77769336Y-127375933D01*
X77793145Y-127334693D01*
X77849479Y-127284739D01*
X78239772Y-127180160D01*
X77971717Y-127025399D01*
X75062417Y-127692065D02*
X75087707Y-127981595D01*
X75309853Y-127834922D02*
X75059853Y-128267935D01*
X74894896Y-128172697D01*
X74865561Y-128128268D01*
X74856846Y-128095743D01*
X74860036Y-128042599D01*
X74895751Y-127980740D01*
X74940180Y-127951406D01*
X74972704Y-127942691D01*
X75025848Y-127945881D01*
X75190805Y-128041119D01*
X74668080Y-128041745D02*
X74400024Y-127886983D01*
X74639600Y-127805359D01*
X74577741Y-127769644D01*
X74548406Y-127725215D01*
X74539691Y-127692691D01*
X74542881Y-127639547D01*
X74602405Y-127536449D01*
X74646834Y-127507114D01*
X74679359Y-127498399D01*
X74732503Y-127501589D01*
X74856221Y-127573018D01*
X74885555Y-127617447D01*
X74894270Y-127649971D01*
X74591355Y-127365112D02*
X74261441Y-127174635D01*
X73928962Y-127560029D02*
X73896438Y-127568744D01*
X73843294Y-127565554D01*
X73740195Y-127506030D01*
X73710861Y-127461601D01*
X73702146Y-127429077D01*
X73705336Y-127375933D01*
X73729145Y-127334693D01*
X73785479Y-127284739D01*
X74175772Y-127180160D01*
X73907717Y-127025399D01*
X71000417Y-127692065D02*
X71025707Y-127981595D01*
X71247853Y-127834922D02*
X70997853Y-128267935D01*
X70832896Y-128172697D01*
X70803561Y-128128268D01*
X70794846Y-128095743D01*
X70798036Y-128042599D01*
X70833751Y-127980740D01*
X70878180Y-127951406D01*
X70910704Y-127942691D01*
X70963848Y-127945881D01*
X71128805Y-128041119D01*
X70609270Y-127988600D02*
X70576745Y-127997315D01*
X70523601Y-127994126D01*
X70420503Y-127934602D01*
X70391168Y-127890173D01*
X70382453Y-127857648D01*
X70385643Y-127804504D01*
X70409453Y-127763265D01*
X70465787Y-127713311D01*
X70856080Y-127608732D01*
X70588024Y-127453970D01*
X70529355Y-127365112D02*
X70199441Y-127174635D01*
X69866962Y-127560029D02*
X69834438Y-127568744D01*
X69781294Y-127565554D01*
X69678195Y-127506030D01*
X69648861Y-127461601D01*
X69640146Y-127429077D01*
X69643336Y-127375933D01*
X69667145Y-127334693D01*
X69723479Y-127284739D01*
X70113772Y-127180160D01*
X69845717Y-127025399D01*
X66934417Y-127692065D02*
X66959707Y-127981595D01*
X67181853Y-127834922D02*
X66931853Y-128267935D01*
X66766896Y-128172697D01*
X66737561Y-128128268D01*
X66728846Y-128095743D01*
X66732036Y-128042599D01*
X66767751Y-127980740D01*
X66812180Y-127951406D01*
X66844704Y-127942691D01*
X66897848Y-127945881D01*
X67062805Y-128041119D01*
X66522024Y-127453970D02*
X66769460Y-127596827D01*
X66645742Y-127525399D02*
X66395742Y-127958411D01*
X66472696Y-127920362D01*
X66537745Y-127902932D01*
X66590889Y-127906122D01*
X66463355Y-127365112D02*
X66133441Y-127174635D01*
X65800962Y-127560029D02*
X65768438Y-127568744D01*
X65715294Y-127565554D01*
X65612195Y-127506030D01*
X65582861Y-127461601D01*
X65574146Y-127429077D01*
X65577336Y-127375933D01*
X65601145Y-127334693D01*
X65657479Y-127284739D01*
X66047772Y-127180160D01*
X65779717Y-127025399D01*
X81039588Y-30875742D02*
X81007063Y-30884457D01*
X80933300Y-30869362D01*
X80892060Y-30845553D01*
X80842106Y-30789219D01*
X80824676Y-30724170D01*
X80827866Y-30671026D01*
X80854866Y-30576643D01*
X80890580Y-30514784D01*
X80958819Y-30444210D01*
X81003248Y-30414875D01*
X81068297Y-30397446D01*
X81142060Y-30412540D01*
X81183300Y-30436350D01*
X81233254Y-30492684D01*
X81241969Y-30525208D01*
X81074447Y-31005840D02*
X81404362Y-31196316D01*
X81758086Y-31345553D02*
X81510650Y-31202696D01*
X81634368Y-31274124D02*
X81884368Y-30841112D01*
X81807414Y-30879161D01*
X81742365Y-30896591D01*
X81689221Y-30893401D01*
X66958411Y-131424257D02*
X66990936Y-131415542D01*
X67064699Y-131430637D01*
X67105939Y-131454446D01*
X67155893Y-131510780D01*
X67173323Y-131575829D01*
X67170133Y-131628973D01*
X67143133Y-131723356D01*
X67107419Y-131785215D01*
X67039180Y-131855789D01*
X66994751Y-131885124D01*
X66929702Y-131902553D01*
X66855939Y-131887459D01*
X66814699Y-131863649D01*
X66764745Y-131807315D01*
X66756030Y-131774791D01*
X66923552Y-131294159D02*
X66593637Y-131103683D01*
X66261159Y-131489077D02*
X66228634Y-131497792D01*
X66175490Y-131494602D01*
X66072392Y-131435078D01*
X66043057Y-131390649D01*
X66034342Y-131358124D01*
X66037532Y-131304980D01*
X66061342Y-131263741D01*
X66117676Y-131213787D01*
X66507969Y-131109208D01*
X66239913Y-130954446D01*
X76721588Y-73420742D02*
X76689063Y-73429457D01*
X76615300Y-73414362D01*
X76574060Y-73390553D01*
X76524106Y-73334219D01*
X76506676Y-73269170D01*
X76509866Y-73216026D01*
X76536866Y-73121643D01*
X76572580Y-73059784D01*
X76640819Y-72989210D01*
X76685248Y-72959875D01*
X76750297Y-72942446D01*
X76824060Y-72957540D01*
X76865300Y-72981350D01*
X76915254Y-73037684D01*
X76923969Y-73070208D01*
X76756447Y-73550840D02*
X77086362Y-73741316D01*
X77422030Y-73302778D02*
X77690086Y-73457540D01*
X77450510Y-73539164D01*
X77512369Y-73574878D01*
X77541704Y-73619308D01*
X77550418Y-73651832D01*
X77547229Y-73704976D01*
X77487705Y-73808074D01*
X77443276Y-73837409D01*
X77410751Y-73846124D01*
X77357607Y-73842934D01*
X77233889Y-73771505D01*
X77204555Y-73727076D01*
X77195840Y-73694552D01*
X72427582Y-54292934D02*
X72402292Y-54003404D01*
X72180146Y-54150077D02*
X72430146Y-53717064D01*
X72595103Y-53812302D01*
X72624438Y-53856731D01*
X72633153Y-53889256D01*
X72629963Y-53942400D01*
X72594248Y-54004259D01*
X72549819Y-54033593D01*
X72517295Y-54042308D01*
X72464151Y-54039118D01*
X72299194Y-53943880D01*
X72839975Y-54531029D02*
X72592539Y-54388172D01*
X72716257Y-54459600D02*
X72966257Y-54026588D01*
X72889303Y-54064637D01*
X72824254Y-54082067D01*
X72771110Y-54078877D01*
X72898644Y-54619887D02*
X73228558Y-54810364D01*
X73564227Y-54371826D02*
X73832282Y-54526588D01*
X73592707Y-54608212D01*
X73654566Y-54643926D01*
X73683900Y-54688355D01*
X73692615Y-54720880D01*
X73689425Y-54774024D01*
X73629901Y-54877122D01*
X73585472Y-54906456D01*
X73552948Y-54915171D01*
X73499804Y-54911981D01*
X73376086Y-54840553D01*
X73346751Y-54796124D01*
X73338036Y-54763599D01*
X76491582Y-54292934D02*
X76466292Y-54003404D01*
X76244146Y-54150077D02*
X76494146Y-53717064D01*
X76659103Y-53812302D01*
X76688438Y-53856731D01*
X76697153Y-53889256D01*
X76693963Y-53942400D01*
X76658248Y-54004259D01*
X76613819Y-54033593D01*
X76581295Y-54042308D01*
X76528151Y-54039118D01*
X76363194Y-53943880D01*
X76882729Y-53996399D02*
X76915254Y-53987684D01*
X76968398Y-53990873D01*
X77071496Y-54050397D01*
X77100831Y-54094826D01*
X77109546Y-54127351D01*
X77106356Y-54180495D01*
X77082546Y-54221734D01*
X77026212Y-54271688D01*
X76635919Y-54376267D01*
X76903975Y-54531029D01*
X76962644Y-54619887D02*
X77292558Y-54810364D01*
X77628227Y-54371826D02*
X77896282Y-54526588D01*
X77656707Y-54608212D01*
X77718566Y-54643926D01*
X77747900Y-54688355D01*
X77756615Y-54720880D01*
X77753425Y-54774024D01*
X77693901Y-54877122D01*
X77649472Y-54906456D01*
X77616948Y-54915171D01*
X77563804Y-54911981D01*
X77440086Y-54840553D01*
X77410751Y-54796124D01*
X77402036Y-54763599D01*
X72427582Y-92392934D02*
X72402292Y-92103404D01*
X72180146Y-92250077D02*
X72430146Y-91817064D01*
X72595103Y-91912302D01*
X72624438Y-91956731D01*
X72633153Y-91989256D01*
X72629963Y-92042400D01*
X72594248Y-92104259D01*
X72549819Y-92133593D01*
X72517295Y-92142308D01*
X72464151Y-92139118D01*
X72299194Y-92043880D01*
X72821919Y-92043254D02*
X73089975Y-92198016D01*
X72850399Y-92279640D01*
X72912258Y-92315355D01*
X72941593Y-92359784D01*
X72950308Y-92392308D01*
X72947118Y-92445452D01*
X72887594Y-92548550D01*
X72843165Y-92577885D01*
X72810640Y-92586600D01*
X72757496Y-92583410D01*
X72633778Y-92511981D01*
X72604444Y-92467552D01*
X72595729Y-92435028D01*
X72898644Y-92719887D02*
X73228558Y-92910364D01*
X73564227Y-92471826D02*
X73832282Y-92626588D01*
X73592707Y-92708212D01*
X73654566Y-92743926D01*
X73683900Y-92788355D01*
X73692615Y-92820880D01*
X73689425Y-92874024D01*
X73629901Y-92977122D01*
X73585472Y-93006456D01*
X73552948Y-93015171D01*
X73499804Y-93011981D01*
X73376086Y-92940553D01*
X73346751Y-92896124D01*
X73338036Y-92863599D01*
D12*
M02*
